<?xml version="1.0" encoding="UTF-8"?>
<svg id="Camada_2" data-name="Camada 2" xmlns="http://www.w3.org/2000/svg" viewBox="0 0 268.86 371.93">
  <defs>
    <style>
      .cls-1 {
        fill: #fff;
      }
    </style>
  </defs>
  <g id="Layer_1" data-name="Layer 1">
    <g>
      <g>
        <path class="cls-1" d="M55.86,294.46l11.54-27.83h7.26v36.54h-5.53v-26.78l-11.12,26.78h-4.33l-11.07-26.62v26.62h-5.59v-36.54h7.26l11.59,27.83Z"/>
        <path class="cls-1" d="M83.94,265.64c1.18,0,2.17.38,2.95,1.15.78.77,1.17,1.72,1.17,2.87s-.39,2.06-1.17,2.85c-.78.78-1.77,1.17-2.95,1.17s-2.21-.39-2.98-1.17c-.77-.78-1.15-1.73-1.15-2.85s.38-2.11,1.15-2.87c.77-.77,1.76-1.15,2.98-1.15ZM86.71,276.87v26.31h-5.53v-26.31h5.53Z"/>
        <path class="cls-1" d="M98.63,276.87v2.04c0,.38.12.57.37.57.21,0,.37-.09.47-.26,1.67-2.12,4.16-3.18,7.47-3.18,2.19,0,4.08.5,5.66,1.49,1.58.99,2.78,2.33,3.6,4.02.82,1.69,1.23,3.56,1.23,5.61v16.03h-5.53v-14.41c0-2.58-.59-4.49-1.78-5.74-1.18-1.25-2.85-1.88-5.01-1.88s-3.65.66-4.78,1.98c-1.13,1.32-1.7,3.17-1.7,5.53v14.51h-5.53v-26.31h5.53Z"/>
        <path class="cls-1" d="M123.19,297.15c-1.04-2.11-1.57-4.52-1.57-7.23,0-2.51.57-4.82,1.72-6.94,1.15-2.12,2.77-3.81,4.86-5.06,2.09-1.25,4.49-1.88,7.2-1.88,2.85,0,5.27.65,7.26,1.96,1.98,1.31,3.47,3.07,4.46,5.3.99,2.23,1.49,4.7,1.49,7.41,0,.59-.02,1.04-.05,1.36h-21.04c.35,2.09,1.21,3.71,2.58,4.86,1.37,1.15,3.23,1.72,5.56,1.72,1.67,0,3.12-.35,4.36-1.04,1.24-.7,2.22-1.6,2.95-2.71l3.76,3.24c-1.04,1.67-2.52,3.05-4.44,4.15-1.91,1.1-4.12,1.64-6.63,1.64-3.06,0-5.65-.6-7.75-1.8-2.11-1.2-3.68-2.85-4.72-4.96ZM140.6,282.97c-1.27-1.11-3-1.67-5.19-1.67s-3.81.55-5.17,1.64c-1.36,1.1-2.23,2.6-2.61,4.52h15.09c-.14-1.88-.84-3.38-2.11-4.49Z"/>
        <path class="cls-1" d="M156,265.64c1.18,0,2.17.38,2.95,1.15.78.77,1.17,1.72,1.17,2.87s-.39,2.06-1.17,2.85c-.78.78-1.77,1.17-2.95,1.17s-2.21-.39-2.98-1.17c-.77-.78-1.15-1.73-1.15-2.85s.38-2.11,1.15-2.87c.77-.77,1.76-1.15,2.98-1.15ZM158.77,276.87v26.31h-5.53v-26.31h5.53Z"/>
        <path class="cls-1" d="M170.54,276.87v26.31h-5.53v-26.31h5.53ZM176.39,276.4c1.18,0,2.17.38,2.95,1.15.78.77,1.17,1.72,1.17,2.87s-.39,2.06-1.17,2.85c-.78.78-1.77,1.17-2.95,1.17s-2.21-.39-2.98-1.17c-.77-.78-1.15-1.73-1.15-2.85s.38-2.11,1.15-2.87c.77-.77,1.76-1.15,2.98-1.15Z"/>
        <path class="cls-1" d="M184.33,296.96c-1.18-2.12-1.78-4.45-1.78-7s.58-4.88,1.75-7.02c1.17-2.14,2.82-3.83,4.96-5.06,2.14-1.24,4.59-1.85,7.33-1.85,2.58,0,4.92.63,7.05,1.88,2.12,1.25,3.8,2.94,5.04,5.06,1.24,2.12,1.85,4.45,1.85,7s-.58,4.87-1.75,7c-1.17,2.12-2.81,3.81-4.93,5.06-2.12,1.25-4.54,1.88-7.26,1.88s-5.19-.63-7.31-1.88c-2.12-1.25-3.78-2.94-4.96-5.06ZM196.6,298.64c2.4,0,4.37-.82,5.9-2.45,1.53-1.64,2.3-3.71,2.3-6.21s-.77-4.58-2.3-6.21c-1.53-1.64-3.5-2.45-5.9-2.45s-4.47.82-6,2.45c-1.53,1.64-2.3,3.71-2.3,6.21s.77,4.62,2.3,6.24c1.53,1.62,3.53,2.43,6,2.43Z"/>
      </g>
      <g>
        <g>
          <path class="cls-1" d="M187.98,99.6c.58-.58.44-1.33-.31-1.66l-1.84-.83c-.75-.33-1.89-.21-2.55.29l-6.18,4.66c-.65.49-1.19.23-1.19-.59l-.03-23.15c0-.82-.67-1.49-1.49-1.49h-5.32c-.82,0-1.51.67-1.53,1.49l-1.72,66.4c-.02.82-.54,1.04-1.15.49l-17.29-15.51c-.61-.55-1.72-.73-2.47-.41l-2.4,1.03c-.75.32-.91,1.08-.35,1.68l23.16,24.89c.56.6,1.01,1.76,1,2.58l-.36,30.45c0,.82.65,1.49,1.47,1.49h8.57c.82,0,1.48-.67,1.46-1.49l-1.32-76.93c-.01-.82.45-1.96,1.02-2.54l10.82-10.86Z"/>
          <path class="cls-1" d="M205.75,130.79c0-5.73-4.63-10.4-10.32-10.4s-10.32,4.67-10.32,10.4,4.63,10.4,10.32,10.4,10.32-4.67,10.32-10.4Z"/>
          <path class="cls-1" d="M142.84,152.6c-5.69,0-10.32,4.67-10.32,10.4s4.63,10.4,10.32,10.4,10.32-4.67,10.32-10.4-4.63-10.4-10.32-10.4Z"/>
          <path class="cls-1" d="M138.32,107.55c0,5.73,4.63,10.4,10.32,10.4s10.32-4.67,10.32-10.4-4.63-10.4-10.32-10.4-10.32,4.67-10.32,10.4Z"/>
          <path class="cls-1" d="M223.3,97.37c-.78-.68-1.96-.68-2.74,0-5.77,5-9.28,11.57-9.28,18.77s3.5,13.76,9.28,18.77c.78.68,1.96.68,2.74,0,5.77-5,9.28-11.57,9.28-18.77s-3.5-13.76-9.28-18.77Z"/>
          <path class="cls-1" d="M122.13,105.02c-.78-.68-1.96-.68-2.74,0-5.77,5-9.28,11.57-9.28,18.77s3.5,13.76,9.28,18.77c.78.68,1.96.68,2.74,0,5.77-5,9.28-11.57,9.28-18.77s-3.5-13.76-9.28-18.77Z"/>
          <path class="cls-1" d="M125.59,91.13c7.62.53,14.74-1.65,19.82-6.74,5.08-5.1,7.24-12.22,6.68-19.84-.08-1.03-.91-1.86-1.94-1.93-7.62-.53-14.74,1.65-19.82,6.74-5.08,5.1-7.24,12.22-6.68,19.84.08,1.03.91,1.86,1.94,1.93Z"/>
          <path class="cls-1" d="M185.69,68.91c1.04-.05,1.88-.86,1.98-1.9.7-7.61-1.31-14.77-6.29-19.97-4.98-5.19-12.06-7.51-19.69-7.13-1.04.05-1.88.86-1.98,1.9-.7,7.61,1.31,14.77,6.29,19.97,4.98,5.19,12.06,7.51,19.69,7.13Z"/>
          <path class="cls-1" d="M215.41,145.82c-7.63-.4-14.71,1.9-19.7,7.08-4.99,5.18-7.03,12.34-6.34,19.95.09,1.03.94,1.85,1.97,1.9,7.63.4,14.71-1.9,19.7-7.08,4.99-5.18,7.03-12.34,6.34-19.95-.09-1.03-.94-1.85-1.97-1.9Z"/>
          <path class="cls-1" d="M198.09,96.99c7.46-1.66,13.66-5.78,17.08-12.11,3.42-6.33,3.46-13.78.75-20.92-.37-.97-1.4-1.53-2.41-1.3-7.46,1.66-13.66,5.78-17.08,12.11-3.42,6.33-3.46,13.78-.75,20.92.37.97,1.4,1.53,2.41,1.3Z"/>
        </g>
        <path class="cls-1" d="M158.25,371.93h-47.65c-29.54,0-57.32-11.51-78.21-32.4C11.51,318.65,0,290.87,0,261.32V110.61c0-29.54,11.51-57.32,32.4-78.21C53.29,11.51,81.06,0,110.61,0h47.65c29.54,0,57.32,11.51,78.21,32.4,20.89,20.89,32.4,48.67,32.4,78.21v150.72c0,29.54-11.51,57.32-32.4,78.21-20.89,20.89-48.67,32.4-78.21,32.4ZM110.61,8.69c-27.22,0-52.82,10.6-72.07,29.85-19.25,19.25-29.85,44.84-29.85,72.07v150.72c0,27.22,10.6,52.82,29.85,72.07,19.25,19.25,44.84,29.85,72.07,29.85h47.65c27.22,0,52.82-10.6,72.07-29.85,19.25-19.25,29.85-44.84,29.85-72.07V110.61c0-27.22-10.6-52.82-29.85-72.07-19.25-19.25-44.84-29.85-72.07-29.85h-47.65Z"/>
        <g>
          <path class="cls-1" d="M37.44,244.27c-1.55-2.91-2.32-6.13-2.32-9.68s.82-6.73,2.45-9.66c1.64-2.92,3.87-5.24,6.71-6.94,2.84-1.71,5.98-2.56,9.42-2.56s6.73.9,9.63,2.71c2.91,1.81,4.97,4.19,6.19,7.15l-4.85,2.98c-.87-2.09-2.3-3.83-4.28-5.22-1.98-1.39-4.21-2.09-6.68-2.09s-4.6.58-6.5,1.75c-1.9,1.17-3.38,2.78-4.44,4.86-1.06,2.07-1.59,4.41-1.59,7.02s.53,4.89,1.59,6.94c1.06,2.05,2.54,3.66,4.44,4.83,1.9,1.17,4.06,1.75,6.5,1.75,2.65,0,5.02-.78,7.13-2.35,2.11-1.57,3.58-3.5,4.41-5.79l4.65,2.77c-.7,2.02-1.82,3.85-3.37,5.51-1.55,1.65-3.42,2.97-5.61,3.94-2.19.97-4.59,1.46-7.2,1.46-3.65,0-6.89-.84-9.71-2.51-2.82-1.67-5-3.96-6.55-6.86Z"/>
          <path class="cls-1" d="M75.42,246.77c-1.04-2.11-1.57-4.52-1.57-7.23,0-2.51.57-4.82,1.72-6.94,1.15-2.12,2.77-3.81,4.86-5.06,2.09-1.25,4.49-1.88,7.2-1.88,2.85,0,5.27.65,7.26,1.96,1.98,1.31,3.47,3.07,4.46,5.3.99,2.23,1.49,4.7,1.49,7.41,0,.59-.02,1.04-.05,1.36h-21.04c.35,2.09,1.21,3.71,2.58,4.86s3.23,1.72,5.56,1.72c1.67,0,3.12-.35,4.36-1.04,1.24-.7,2.22-1.6,2.95-2.71l3.76,3.24c-1.04,1.67-2.52,3.05-4.44,4.15-1.91,1.1-4.12,1.64-6.63,1.64-3.06,0-5.65-.6-7.75-1.8-2.11-1.2-3.68-2.85-4.72-4.96ZM92.83,232.6c-1.27-1.11-3-1.67-5.19-1.67s-3.81.55-5.17,1.64c-1.36,1.1-2.23,2.6-2.61,4.52h15.09c-.14-1.88-.84-3.38-2.11-4.49Z"/>
          <path class="cls-1" d="M110.98,226.49v26.31h-5.53v-26.31h5.53ZM116.82,226.02c1.18,0,2.17.38,2.95,1.15.78.77,1.17,1.72,1.17,2.87s-.39,2.06-1.17,2.85c-.78.78-1.77,1.17-2.95,1.17s-2.21-.39-2.98-1.17c-.77-.78-1.15-1.73-1.15-2.85s.38-2.11,1.15-2.87c.77-.77,1.76-1.15,2.98-1.15Z"/>
          <path class="cls-1" d="M131.13,226.49v26.31h-5.53v-26.31h5.53ZM136.97,226.02c1.18,0,2.17.38,2.95,1.15.78.77,1.17,1.72,1.17,2.87s-.39,2.06-1.17,2.85c-.78.78-1.77,1.17-2.95,1.17s-2.21-.39-2.98-1.17c-.77-.78-1.15-1.73-1.15-2.85s.38-2.11,1.15-2.87c.77-.77,1.76-1.15,2.98-1.15Z"/>
          <path class="cls-1" d="M143.73,245.96c0-4.7,2.98-7.5,8.93-8.4l9.14-1.41v-.63c0-3.2-1.95-4.8-5.85-4.8-1.64,0-2.98.34-4.02,1.02-1.04.68-1.62,1.66-1.72,2.95l-.05.68h-5.53l.05-.68c.21-2.99,1.38-5.24,3.52-6.73,2.14-1.5,4.83-2.24,8.07-2.24s5.8.75,7.91,2.24c2.11,1.5,3.16,4.02,3.16,7.57v17.28h-5.53v-3.39c0-.28-.12-.42-.37-.42-.17,0-.31.09-.42.26-.9,1.32-2.13,2.37-3.68,3.13-1.55.77-3.18,1.15-4.88,1.15-2.65,0-4.76-.67-6.34-2.01-1.58-1.34-2.38-3.19-2.38-5.56ZM153.38,248.63c2.23,0,4.12-.71,5.69-2.14,1.57-1.43,2.47-3.43,2.71-6l-8.77,1.41c-1.15.17-2.06.58-2.74,1.23-.68.64-1.02,1.45-1.02,2.43s.37,1.69,1.12,2.24c.75.56,1.75.84,3,.84Z"/>
          <path class="cls-1" d="M173.66,246.75c-1.22-2.12-1.83-4.51-1.83-7.15s.58-5.08,1.75-7.2c1.17-2.12,2.79-3.78,4.88-4.96,2.09-1.18,4.49-1.77,7.2-1.77,1.6,0,3.08.3,4.44.89,1.36.59,2.51,1.39,3.45,2.4.14.14.28.21.42.21.1,0,.2-.06.29-.18.09-.12.13-.27.13-.44v-13.31h5.53v37.59h-5.53v-1.98c0-.45-.14-.68-.42-.68-.14,0-.28.07-.42.21-.9.94-2.04,1.71-3.42,2.3-1.37.59-2.86.89-4.46.89-2.58,0-4.92-.6-7.02-1.8-2.11-1.2-3.77-2.86-4.99-4.99ZM181.65,247.22c1.25.7,2.65,1.04,4.18,1.04,2.68,0,4.78-.8,6.29-2.4,1.51-1.6,2.27-3.69,2.27-6.26s-.76-4.66-2.27-6.26c-1.51-1.6-3.61-2.4-6.29-2.4-2.37,0-4.33.77-5.9,2.32-1.57,1.55-2.35,3.66-2.35,6.34,0,1.74.37,3.27,1.1,4.59.73,1.32,1.72,2.33,2.98,3.03Z"/>
          <path class="cls-1" d="M206.06,246.59c-1.18-2.12-1.77-4.45-1.77-7s.58-4.88,1.75-7.02c1.17-2.14,2.82-3.83,4.96-5.06,2.14-1.24,4.59-1.85,7.33-1.85,2.58,0,4.92.63,7.05,1.88,2.12,1.25,3.8,2.94,5.04,5.06,1.24,2.12,1.85,4.45,1.85,7s-.58,4.87-1.75,7c-1.17,2.12-2.81,3.81-4.93,5.06-2.12,1.25-4.54,1.88-7.26,1.88s-5.19-.63-7.31-1.88c-2.12-1.25-3.78-2.94-4.96-5.06ZM218.33,248.26c2.4,0,4.37-.82,5.9-2.45,1.53-1.64,2.3-3.71,2.3-6.21s-.77-4.58-2.3-6.21c-1.53-1.64-3.5-2.45-5.9-2.45s-4.47.82-6,2.45c-1.53,1.64-2.3,3.71-2.3,6.21s.77,4.62,2.3,6.24c1.53,1.62,3.53,2.43,6,2.43Z"/>
        </g>
        <g>
          <path class="cls-1" d="M45.8,168.11c2.47,0,4.7.58,6.68,1.74,1.98,1.16,3.54,2.75,4.66,4.76,1.12,2.01,1.69,4.23,1.69,6.65s-.53,4.66-1.59,6.65-2.58,3.55-4.55,4.7c-1.97,1.15-4.27,1.72-6.89,1.72h-9.62v-26.22h9.62ZM50.38,189.37c1.31-.79,2.32-1.89,3.03-3.3.71-1.41,1.07-3.01,1.07-4.81s-.36-3.41-1.07-4.83c-.71-1.42-1.72-2.53-3.03-3.33-1.31-.8-2.84-1.2-4.59-1.2h-5.28v18.65h5.28c1.75,0,3.28-.39,4.59-1.18Z"/>
          <path class="cls-1" d="M59.93,192.04c0-.85.28-1.55.84-2.1.56-.55,1.25-.82,2.08-.82s1.52.27,2.08.82c.56.55.84,1.25.84,2.1s-.28,1.51-.84,2.06-1.25.82-2.08.82-1.52-.27-2.08-.82c-.56-.55-.84-1.24-.84-2.06Z"/>
          <path class="cls-1" d="M70.48,188.2c-1.11-2.08-1.67-4.4-1.67-6.95s.59-4.83,1.76-6.93c1.17-2.1,2.78-3.76,4.81-4.98,2.03-1.22,4.29-1.84,6.76-1.84s4.72.61,6.76,1.84c2.03,1.22,3.64,2.88,4.81,4.98,1.17,2.1,1.76,4.41,1.76,6.93s-.56,4.86-1.67,6.95c-1.11,2.08-2.68,3.73-4.7,4.92-2.02,1.2-4.34,1.8-6.97,1.8s-4.94-.6-6.97-1.8c-2.02-1.2-3.59-2.84-4.7-4.92ZM77.46,189.7c1.37.84,2.93,1.25,4.68,1.25s3.3-.42,4.66-1.25c1.36-.84,2.42-1.99,3.18-3.46.76-1.47,1.14-3.13,1.14-4.98s-.38-3.55-1.14-5.04c-.76-1.49-1.82-2.65-3.18-3.48-1.36-.84-2.91-1.25-4.66-1.25s-3.31.42-4.68,1.25c-1.37.84-2.43,2-3.18,3.48-.75,1.49-1.12,3.16-1.12,5.04s.37,3.51,1.12,4.98c.75,1.47,1.81,2.63,3.18,3.46Z"/>
          <path class="cls-1" d="M96.67,192.04c0-.85.28-1.55.84-2.1.56-.55,1.25-.82,2.08-.82s1.52.27,2.08.82c.56.55.84,1.25.84,2.1s-.28,1.51-.84,2.06-1.25.82-2.08.82-1.52-.27-2.08-.82c-.56-.55-.84-1.24-.84-2.06Z"/>
        </g>
      </g>
    </g>
  </g>
</svg>