<?xml version="1.0" encoding="UTF-8"?>
<svg id="Camada_2" data-name="Camada 2" xmlns="http://www.w3.org/2000/svg" viewBox="0 0 417.37 188.04">
  <defs>
    <style>
      .cls-1 {
        fill: #fff;
      }
    </style>
  </defs>
  <g id="Layer_1" data-name="Layer 1">
    <g>
      <path class="cls-1" d="M19.33,48.72c-6.12,0-10.87-1.83-14.26-5.48-3.38-3.65-5.08-8.77-5.08-15.36V0h7.34v27.88c0,4.42,1.05,7.84,3.15,10.25,2.1,2.41,5.05,3.62,8.84,3.62s6.88-1.21,9.05-3.62c2.17-2.41,3.25-5.83,3.25-10.25V0h7v27.88c0,6.57-1.7,11.68-5.09,15.35-3.4,3.66-8.13,5.49-14.21,5.49Z"/>
      <path class="cls-1" d="M69.42,27.94c0-3.02-.64-5.28-1.91-6.78-1.27-1.51-2.95-2.26-5.03-2.26-1.03,0-2.03.18-3,.55-.97.37-1.88.9-2.71,1.59-.84.69-1.51,1.64-2.03,2.85-.51,1.21-.77,2.56-.77,4.05v20.1h-7V12.97h7v4.12c1.32-1.59,2.89-2.78,4.71-3.58,1.82-.8,3.66-1.21,5.51-1.21,2.39,0,4.5.52,6.33,1.56,1.83,1.04,3.25,2.55,4.25,4.54,1.38-2.01,3.14-3.53,5.28-4.56,2.13-1.03,4.33-1.54,6.58-1.54,3.71,0,6.68,1.22,8.91,3.67,2.23,2.45,3.35,5.87,3.35,10.27v21.81h-6.97v-20.1c0-3.02-.65-5.28-1.94-6.78-1.3-1.51-2.98-2.26-5.06-2.26-1.03,0-2.03.18-3,.55-.97.37-1.88.9-2.71,1.59-.84.69-1.51,1.64-2.03,2.85-.51,1.21-.77,2.56-.77,4.05v20.1h-7v-20.1Z"/>
      <path class="cls-1" d="M123.37,48.05V0h31.16v6.8h-23.82v13.1h21.85v6.8h-21.85v21.34h-7.34Z"/>
      <path class="cls-1" d="M166.96,33.1c0,3.02.71,5.28,2.13,6.78,1.42,1.51,3.29,2.26,5.61,2.26,1.56,0,3.04-.3,4.42-.9,1.38-.6,2.56-1.61,3.54-3.03.97-1.42,1.46-3.12,1.46-5.11V12.97h7v35.08h-7v-4.32c-1.39,1.65-3.07,2.9-5.04,3.74-1.98.84-4,1.26-6.08,1.26-3.98,0-7.14-1.21-9.5-3.64-2.36-2.42-3.53-5.85-3.53-10.27V12.97h7v20.14Z"/>
      <path class="cls-1" d="M213.86,48.05c-3.02,0-5.48-.9-7.4-2.71-1.92-1.81-2.88-4.2-2.88-7.17v-18.86h-6.13v-6.33h6.13V4.05h7v8.91h8.71v6.33h-8.71v18.86c0,2.39,1.09,3.58,3.28,3.58h5.43v6.3h-5.43Z"/>
      <path class="cls-1" d="M233.63,33.1c0,3.02.71,5.28,2.13,6.78,1.42,1.51,3.29,2.26,5.61,2.26,1.56,0,3.04-.3,4.42-.9,1.38-.6,2.56-1.61,3.54-3.03.97-1.42,1.46-3.12,1.46-5.11V12.97h7v35.08h-7v-4.32c-1.39,1.65-3.07,2.9-5.04,3.74-1.98.84-4,1.26-6.08,1.26-3.98,0-7.14-1.21-9.5-3.64-2.36-2.42-3.53-5.85-3.53-10.27V12.97h7v20.14Z"/>
      <path class="cls-1" d="M266.53,48.05V12.97h7v35.08h-7ZM281.34,22.11c-1.41,0-2.57-.46-3.48-1.37-.92-.92-1.37-2.09-1.37-3.52s.46-2.61,1.37-3.53c.92-.93,2.08-1.39,3.48-1.39s2.58.46,3.53,1.39c.95.93,1.42,2.11,1.42,3.53s-.47,2.6-1.41,3.52c-.94.92-2.12,1.37-3.55,1.37Z"/>
      <path class="cls-1" d="M316.1,47.53c-2.11.79-4.32,1.19-6.62,1.19s-4.51-.4-6.62-1.19c-2.11-.79-4-1.93-5.66-3.42-1.66-1.49-2.99-3.4-3.97-5.75-.98-2.35-1.47-4.95-1.47-7.81s.49-5.5,1.47-7.86c.98-2.36,2.31-4.28,3.97-5.76,1.66-1.49,3.55-2.63,5.66-3.43,2.11-.8,4.32-1.21,6.62-1.21s4.51.4,6.62,1.21c2.11.8,3.99,1.95,5.65,3.43,1.65,1.49,2.97,3.41,3.95,5.76.98,2.36,1.47,4.98,1.47,7.86s-.49,5.46-1.47,7.81c-.98,2.35-2.3,4.26-3.95,5.75-1.65,1.49-3.53,2.62-5.65,3.42ZM302.03,39.05c1.95,2.07,4.44,3.1,7.46,3.1s5.51-1.03,7.47-3.1c1.97-2.07,2.95-4.9,2.95-8.49s-.98-6.47-2.95-8.54c-1.97-2.08-4.46-3.12-7.47-3.12s-5.5,1.04-7.46,3.12c-1.96,2.08-2.93,4.93-2.93,8.54s.98,6.43,2.93,8.49Z"/>
      <path class="cls-1" d="M.67,117.71v-48.05h17.66c4.58,0,8.32,1.27,11.22,3.82,2.9,2.55,4.36,5.96,4.36,10.25,0,3.42-.96,6.25-2.86,8.51-1.91,2.26-4.48,3.79-7.72,4.59l16.75,20.87h-9.28l-15.98-20.3h-6.8v20.3H.67ZM8.01,91h10.32c2.48,0,4.42-.64,5.83-1.93,1.41-1.28,2.11-3.07,2.11-5.34s-.7-4.09-2.11-5.36-3.35-1.91-5.83-1.91h-10.32v14.54Z"/>
      <path class="cls-1" d="M58.57,118.38c-2.26,0-4.41-.4-6.47-1.19-2.06-.79-3.89-1.93-5.51-3.42-1.62-1.49-2.91-3.4-3.87-5.75-.96-2.35-1.44-4.95-1.44-7.81s.47-5.5,1.41-7.86c.94-2.36,2.2-4.28,3.79-5.76,1.59-1.49,3.38-2.63,5.39-3.43,2.01-.8,4.13-1.21,6.37-1.21s4.32.4,6.33,1.19c2.01.79,3.8,1.93,5.36,3.42,1.56,1.49,2.81,3.4,3.74,5.73.93,2.33,1.39,4.93,1.39,7.79v2.58h-26.7c.45,3.02,1.59,5.36,3.43,7.04s4.1,2.51,6.79,2.51c3.82,0,6.52-1.4,8.11-4.19h7.84c-1.36,3.42-3.46,6-6.3,7.74s-6.05,2.61-9.65,2.61ZM48.55,96.56h19.1c-.45-2.66-1.51-4.72-3.2-6.18-1.69-1.46-3.76-2.19-6.22-2.19s-4.55.73-6.28,2.18c-1.73,1.45-2.86,3.52-3.4,6.2Z"/>
      <path class="cls-1" d="M99.88,132.11c-4.04,0-7.56-.97-10.55-2.9-2.99-1.93-5.04-4.61-6.13-8.02h8.18c.67,1.34,1.74,2.4,3.22,3.17s3.24,1.16,5.29,1.16c3.06,0,5.46-.95,7.2-2.86,1.74-1.91,2.61-4.52,2.61-7.82v-2.41c-2.79,3.48-6.59,5.23-11.39,5.23-2.19,0-4.27-.39-6.23-1.17-1.97-.78-3.73-1.9-5.28-3.37-1.55-1.46-2.78-3.34-3.69-5.65-.9-2.3-1.36-4.86-1.36-7.67s.45-5.37,1.36-7.66c.9-2.29,2.13-4.17,3.67-5.63,1.54-1.46,3.3-2.59,5.28-3.37,1.98-.78,4.06-1.17,6.25-1.17,4.8,0,8.6,1.74,11.39,5.23v-4.56h7v32.2c0,5.09-1.56,9.25-4.69,12.46-3.13,3.22-7.17,4.82-12.13,4.82ZM99.54,111.11c3.02,0,5.52-1.01,7.51-3.03,1.99-2.02,2.98-4.79,2.98-8.29s-.99-6.2-2.98-8.21c-1.99-2.01-4.49-3.02-7.51-3.02s-5.48,1.01-7.47,3.02c-1.99,2.01-2.98,4.75-2.98,8.21s.99,6.24,2.98,8.28c1.99,2.03,4.48,3.05,7.47,3.05Z"/>
      <path class="cls-1" d="M141.69,118.38c-2.26,0-4.41-.4-6.47-1.19-2.06-.79-3.89-1.93-5.51-3.42-1.62-1.49-2.91-3.4-3.87-5.75-.96-2.35-1.44-4.95-1.44-7.81s.47-5.5,1.41-7.86c.94-2.36,2.2-4.28,3.79-5.76,1.59-1.49,3.38-2.63,5.39-3.43,2.01-.8,4.13-1.21,6.37-1.21s4.32.4,6.33,1.19c2.01.79,3.8,1.93,5.36,3.42,1.56,1.49,2.81,3.4,3.74,5.73.93,2.33,1.39,4.93,1.39,7.79v2.58h-26.7c.45,3.02,1.59,5.36,3.43,7.04s4.1,2.51,6.79,2.51c3.82,0,6.52-1.4,8.11-4.19h7.84c-1.36,3.42-3.46,6-6.3,7.74-2.84,1.74-6.05,2.61-9.65,2.61ZM131.67,96.56h19.1c-.45-2.66-1.51-4.72-3.2-6.18-1.69-1.46-3.76-2.19-6.22-2.19s-4.55.73-6.28,2.18c-1.73,1.45-2.86,3.52-3.4,6.2Z"/>
      <path class="cls-1" d="M190.08,97.6c0-3.02-.71-5.28-2.13-6.78-1.42-1.51-3.29-2.26-5.61-2.26-1.56,0-3.04.3-4.42.9-1.39.6-2.56,1.61-3.53,3.03-.97,1.42-1.46,3.12-1.46,5.11v20.1h-7v-35.08h7v4.32c1.38-1.65,3.07-2.9,5.04-3.74,1.98-.84,4-1.26,6.08-1.26,3.98,0,7.14,1.22,9.5,3.65,2.36,2.43,3.53,5.86,3.53,10.29v21.81h-7v-20.1Z"/>
      <path class="cls-1" d="M220.7,118.38c-2.26,0-4.41-.4-6.47-1.19-2.05-.79-3.89-1.93-5.51-3.42-1.62-1.49-2.91-3.4-3.87-5.75-.96-2.35-1.44-4.95-1.44-7.81s.47-5.5,1.41-7.86c.94-2.36,2.2-4.28,3.79-5.76,1.59-1.49,3.38-2.63,5.39-3.43,2.01-.8,4.13-1.21,6.37-1.21s4.32.4,6.33,1.19c2.01.79,3.8,1.93,5.36,3.42,1.56,1.49,2.81,3.4,3.74,5.73.93,2.33,1.39,4.93,1.39,7.79v2.58h-26.7c.45,3.02,1.59,5.36,3.43,7.04,1.84,1.68,4.1,2.51,6.79,2.51,3.82,0,6.52-1.4,8.11-4.19h7.84c-1.36,3.42-3.46,6-6.3,7.74-2.84,1.74-6.05,2.61-9.65,2.61ZM210.68,96.56h19.1c-.45-2.66-1.51-4.72-3.2-6.18-1.69-1.46-3.76-2.19-6.22-2.19s-4.55.73-6.28,2.18c-1.73,1.45-2.86,3.52-3.4,6.2Z"/>
      <path class="cls-1" d="M244.92,117.71v-35.08h7v35.08h-7ZM259.73,91.77c-1.41,0-2.57-.46-3.48-1.37-.92-.92-1.37-2.09-1.37-3.52s.46-2.61,1.37-3.53c.92-.93,2.08-1.39,3.48-1.39s2.58.46,3.53,1.39c.95.93,1.42,2.11,1.42,3.53s-.47,2.6-1.41,3.52c-.94.92-2.12,1.37-3.55,1.37Z"/>
      <path class="cls-1" d="M286.49,117.19c-1.93.79-3.97,1.19-6.11,1.19s-4.07-.36-5.78-1.07c-1.71-.71-3.1-1.85-4.19-3.42-1.08-1.56-1.62-3.45-1.62-5.66,0-2.79.87-5.05,2.6-6.77,1.73-1.72,4.44-3.03,8.12-3.92l11.79-2.75v-1.44c0-1.41-.63-2.56-1.88-3.45-1.25-.89-2.85-1.34-4.79-1.34s-3.56.4-4.98,1.19c-1.42.79-2.34,2.11-2.76,3.94h-7.61c.6-3.75,2.31-6.65,5.11-8.68,2.8-2.03,6.22-3.05,10.24-3.05s7.42,1.03,9.92,3.1c2.5,2.07,3.75,4.83,3.75,8.29v24.36h-7v-4.12c-1.27,1.61-2.88,2.81-4.81,3.6ZM276.12,107.82c0,1.52.55,2.65,1.66,3.4,1.11.75,2.45,1.12,4.04,1.12,2.48,0,4.68-.76,6.6-2.28,1.92-1.52,2.88-3.6,2.88-6.23v-3.08l-10.22,2.35c-1.79.45-3.06,1.05-3.82,1.81-.76.76-1.14,1.73-1.14,2.91Z"/>
      <path class="cls-1" d="M320.64,117.71c-3.02,0-5.48-.9-7.4-2.71-1.92-1.81-2.88-4.2-2.88-7.17v-18.86h-6.13v-6.33h6.13v-8.91h7v8.91h8.71v6.33h-8.71v18.86c0,2.39,1.09,3.59,3.28,3.59h5.43v6.3h-5.43Z"/>
      <path class="cls-1" d="M337.33,78.24c-1.25,0-2.3-.41-3.15-1.24-.85-.83-1.27-1.85-1.27-3.08s.42-2.32,1.27-3.15c.85-.83,1.9-1.24,3.15-1.24s2.23.41,3.07,1.24c.84.83,1.26,1.88,1.26,3.15s-.42,2.26-1.26,3.08c-.84.83-1.86,1.24-3.07,1.24ZM333.75,117.71v-35.08h7v35.08h-7Z"/>
      <path class="cls-1" d="M359.28,117.71l-13.1-35.08h7.27l9.82,27.27,9.88-27.27h7.27l-13.27,35.08h-7.87Z"/>
      <path class="cls-1" d="M406.3,117.19c-2.11.79-4.32,1.19-6.62,1.19s-4.51-.4-6.62-1.19c-2.11-.79-4-1.93-5.66-3.42-1.66-1.49-2.99-3.4-3.97-5.75s-1.47-4.95-1.47-7.81.49-5.5,1.47-7.86c.98-2.36,2.31-4.28,3.97-5.76,1.66-1.49,3.55-2.63,5.66-3.43,2.11-.8,4.32-1.21,6.62-1.21s4.51.4,6.62,1.21c2.11.8,3.99,1.95,5.65,3.43,1.65,1.49,2.97,3.41,3.95,5.76.98,2.36,1.47,4.98,1.47,7.86s-.49,5.46-1.47,7.81-2.3,4.26-3.95,5.75c-1.65,1.49-3.53,2.62-5.65,3.42ZM392.23,108.71c1.95,2.07,4.44,3.1,7.46,3.1s5.51-1.03,7.47-3.1c1.96-2.07,2.95-4.9,2.95-8.49s-.98-6.47-2.95-8.54c-1.97-2.08-4.46-3.12-7.47-3.12s-5.5,1.04-7.46,3.12c-1.96,2.08-2.93,4.93-2.93,8.54s.98,6.43,2.93,8.49Z"/>
      <path class="cls-1" d="M.67,187.37v-48.05h18.6c4.58,0,8.31,1.36,11.19,4.07,2.88,2.71,4.32,6.33,4.32,10.84s-1.44,8.09-4.32,10.81-6.61,4.07-11.19,4.07h-11.26v18.26H.67ZM19.27,162.3c2.43,0,4.37-.72,5.81-2.16,1.44-1.44,2.16-3.41,2.16-5.91s-.72-4.42-2.16-5.9c-1.44-1.47-3.38-2.21-5.81-2.21h-11.26v16.18h11.26Z"/>
      <path class="cls-1" d="M56.84,186.85c-1.93.79-3.97,1.19-6.11,1.19s-4.07-.36-5.78-1.07c-1.71-.71-3.1-1.85-4.19-3.42-1.08-1.56-1.62-3.45-1.62-5.66,0-2.79.87-5.05,2.6-6.77,1.73-1.72,4.44-3.03,8.12-3.92l11.79-2.75v-1.44c0-1.41-.63-2.56-1.88-3.45-1.25-.89-2.85-1.34-4.79-1.34s-3.56.4-4.98,1.19c-1.42.79-2.34,2.11-2.76,3.94h-7.61c.6-3.75,2.31-6.65,5.11-8.68,2.8-2.03,6.22-3.05,10.24-3.05s7.42,1.03,9.92,3.1c2.5,2.07,3.75,4.83,3.75,8.29v24.36h-7v-4.12c-1.27,1.61-2.88,2.81-4.81,3.6ZM46.47,177.48c0,1.52.55,2.65,1.66,3.4,1.11.75,2.45,1.12,4.04,1.12,2.48,0,4.68-.76,6.6-2.28,1.92-1.52,2.88-3.6,2.88-6.23v-3.08l-10.22,2.35c-1.79.45-3.06,1.05-3.82,1.81-.76.76-1.14,1.73-1.14,2.91Z"/>
      <path class="cls-1" d="M76.99,187.37v-35.08h7v35.08h-7ZM91.8,161.43c-1.41,0-2.57-.46-3.48-1.37-.92-.92-1.37-2.09-1.37-3.52s.46-2.61,1.37-3.53c.92-.93,2.08-1.39,3.48-1.39s2.58.46,3.53,1.39c.95.93,1.42,2.11,1.42,3.53s-.47,2.6-1.41,3.52c-.94.92-2.12,1.37-3.55,1.37Z"/>
      <path class="cls-1" d="M118.56,186.85c-1.93.79-3.97,1.19-6.11,1.19s-4.07-.36-5.78-1.07c-1.71-.71-3.1-1.85-4.19-3.42-1.08-1.56-1.62-3.45-1.62-5.66,0-2.79.87-5.05,2.6-6.77,1.73-1.72,4.44-3.03,8.12-3.92l11.79-2.75v-1.44c0-1.41-.63-2.56-1.88-3.45-1.25-.89-2.85-1.34-4.79-1.34s-3.56.4-4.98,1.19c-1.42.79-2.34,2.11-2.76,3.94h-7.61c.6-3.75,2.31-6.65,5.11-8.68,2.8-2.03,6.22-3.05,10.24-3.05s7.42,1.03,9.92,3.1c2.5,2.07,3.75,4.83,3.75,8.29v24.36h-7v-4.12c-1.27,1.61-2.88,2.81-4.81,3.6ZM108.19,177.48c0,1.52.55,2.65,1.66,3.4,1.11.75,2.45,1.12,4.04,1.12,2.48,0,4.68-.76,6.6-2.28,1.92-1.52,2.88-3.6,2.88-6.23v-3.08l-10.22,2.35c-1.79.45-3.06,1.05-3.82,1.81-.76.76-1.14,1.73-1.14,2.91Z"/>
      <path class="cls-1" d="M177.76,186.85c-2.11.79-4.32,1.19-6.62,1.19s-4.51-.4-6.62-1.19c-2.11-.79-4-1.93-5.66-3.42-1.66-1.49-2.99-3.4-3.97-5.75s-1.47-4.95-1.47-7.81.49-5.5,1.47-7.86c.98-2.36,2.31-4.28,3.97-5.76,1.66-1.49,3.55-2.63,5.66-3.43,2.11-.8,4.32-1.21,6.62-1.21s4.51.4,6.62,1.21c2.11.8,3.99,1.95,5.65,3.43,1.65,1.49,2.97,3.41,3.95,5.76.98,2.36,1.47,4.98,1.47,7.86s-.49,5.46-1.47,7.81-2.3,4.26-3.95,5.75c-1.65,1.49-3.53,2.62-5.65,3.42ZM163.69,178.37c1.95,2.07,4.44,3.1,7.45,3.1s5.51-1.03,7.47-3.1c1.97-2.07,2.95-4.9,2.95-8.49s-.98-6.47-2.95-8.54c-1.97-2.08-4.46-3.12-7.47-3.12s-5.5,1.04-7.45,3.12c-1.96,2.08-2.93,4.93-2.93,8.54s.98,6.43,2.93,8.49Z"/>
      <path class="cls-1" d="M233.87,188.04c-3.08,0-6-.58-8.75-1.74-2.75-1.16-5.15-2.79-7.2-4.89-2.06-2.1-3.69-4.71-4.89-7.82-1.21-3.12-1.81-6.53-1.81-10.24s.6-7.12,1.81-10.24,2.84-5.72,4.89-7.82c2.05-2.1,4.46-3.73,7.2-4.89,2.75-1.16,5.66-1.74,8.75-1.74,4.94,0,9.27,1.39,13.02,4.15,3.74,2.77,6.29,6.53,7.66,11.29h-8.04c-1.07-2.61-2.72-4.67-4.94-6.18-2.22-1.51-4.79-2.26-7.69-2.26-4.38,0-7.97,1.62-10.79,4.87-2.81,3.25-4.22,7.52-4.22,12.82s1.41,9.57,4.22,12.83c2.81,3.26,6.41,4.89,10.79,4.89,3.04,0,5.69-.81,7.96-2.43,2.27-1.62,3.94-3.86,5.01-6.72h7.97c-1.3,4.94-3.85,8.86-7.66,11.76-3.81,2.9-8.24,4.36-13.28,4.36Z"/>
      <path class="cls-1" d="M277.77,186.85c-1.93.79-3.97,1.19-6.11,1.19s-4.07-.36-5.78-1.07c-1.71-.71-3.1-1.85-4.19-3.42-1.08-1.56-1.62-3.45-1.62-5.66,0-2.79.87-5.05,2.6-6.77,1.73-1.72,4.44-3.03,8.12-3.92l11.79-2.75v-1.44c0-1.41-.63-2.56-1.88-3.45-1.25-.89-2.85-1.34-4.79-1.34s-3.56.4-4.98,1.19c-1.42.79-2.34,2.11-2.76,3.94h-7.61c.6-3.75,2.31-6.65,5.11-8.68,2.8-2.03,6.22-3.05,10.24-3.05s7.42,1.03,9.92,3.1c2.5,2.07,3.75,4.83,3.75,8.29v24.36h-7v-4.12c-1.27,1.61-2.88,2.81-4.81,3.6ZM267.4,177.48c0,1.52.55,2.65,1.66,3.4,1.11.75,2.45,1.12,4.04,1.12,2.48,0,4.68-.76,6.6-2.28,1.92-1.52,2.88-3.6,2.88-6.23v-3.08l-10.22,2.35c-1.79.45-3.06,1.05-3.82,1.81-.76.76-1.14,1.73-1.14,2.91Z"/>
      <path class="cls-1" d="M302.05,187.37v-28.75h-6.13v-6.33h6.13v-4.46c0-2.97.96-5.36,2.88-7.17,1.92-1.81,4.39-2.71,7.4-2.71h5.43v6.33h-5.43c-2.19,0-3.28,1.18-3.28,3.55v4.46h8.71v6.33h-8.71v28.75h-7Z"/>
      <path class="cls-1" d="M339.34,188.04c-2.26,0-4.41-.4-6.47-1.19-2.06-.79-3.89-1.93-5.51-3.42-1.62-1.49-2.91-3.4-3.87-5.75-.96-2.35-1.44-4.95-1.44-7.81s.47-5.5,1.41-7.86c.94-2.36,2.2-4.28,3.79-5.76,1.59-1.49,3.38-2.63,5.39-3.43,2.01-.8,4.13-1.21,6.37-1.21s4.32.4,6.33,1.19c2.01.79,3.8,1.93,5.36,3.42,1.56,1.49,2.81,3.4,3.74,5.73.93,2.33,1.39,4.93,1.39,7.79v2.58h-26.7c.45,3.02,1.59,5.36,3.43,7.04s4.1,2.51,6.79,2.51c3.82,0,6.52-1.4,8.11-4.19h7.84c-1.36,3.42-3.46,6-6.3,7.74-2.84,1.74-6.05,2.61-9.65,2.61ZM329.32,166.23h19.1c-.45-2.66-1.51-4.72-3.2-6.18-1.69-1.46-3.76-2.19-6.22-2.19s-4.55.73-6.28,2.18c-1.73,1.45-2.86,3.52-3.4,6.2ZM335.25,148.27l6.83-9.68h8.18l-8.24,9.68h-6.77Z"/>
      <path class="cls-1" d="M370.25,186.66c-.95.92-2.13,1.37-3.53,1.37s-2.57-.46-3.48-1.37c-.92-.92-1.37-2.08-1.37-3.48s.46-2.61,1.37-3.53c.92-.93,2.08-1.39,3.48-1.39s2.58.46,3.53,1.39c.95.93,1.42,2.11,1.42,3.53s-.47,2.57-1.42,3.48Z"/>
    </g>
  </g>
</svg>