<?xml version="1.0" encoding="UTF-8"?>
<svg id="Camada_2" data-name="Camada 2" xmlns="http://www.w3.org/2000/svg" viewBox="0 0 44.24 44.24">
  <defs>
    <style>
      .cls-1 {
        fill: #fff;
      }
    </style>
  </defs>
  <g id="Layer_1" data-name="Layer 1">
    <g>
      <path class="cls-1" d="M22.12,3.99c5.91,0,6.61.02,8.94.13,2.16.1,3.33.46,4.11.76,1.03.4,1.77.88,2.54,1.65.77.77,1.25,1.51,1.65,2.54.3.78.66,1.95.76,4.11.11,2.33.13,3.03.13,8.94s-.02,6.61-.13,8.94c-.1,2.16-.46,3.33-.76,4.11-.4,1.03-.88,1.77-1.65,2.54-.77.77-1.51,1.25-2.54,1.65-.78.3-1.95.66-4.11.76-2.33.11-3.03.13-8.94.13s-6.61-.02-8.94-.13c-2.16-.1-3.33-.46-4.11-.76-1.03-.4-1.77-.88-2.54-1.65-.77-.77-1.25-1.51-1.65-2.54-.3-.78-.66-1.95-.76-4.11-.11-2.33-.13-3.03-.13-8.94s.02-6.61.13-8.94c.1-2.16.46-3.33.76-4.11.4-1.03.88-1.77,1.65-2.54.77-.77,1.51-1.25,2.54-1.65.78-.3,1.95-.66,4.11-.76,2.33-.11,3.03-.13,8.94-.13M22.12,0c-6.01,0-6.76.03-9.12.13-2.35.11-3.96.48-5.37,1.03-1.45.57-2.69,1.32-3.92,2.55-1.23,1.23-1.99,2.46-2.55,3.92-.55,1.41-.92,3.01-1.03,5.37-.11,2.36-.13,3.11-.13,9.12s.03,6.76.13,9.12c.11,2.35.48,3.96,1.03,5.37.57,1.45,1.32,2.69,2.55,3.92,1.23,1.23,2.46,1.99,3.92,2.55,1.41.55,3.01.92,5.37,1.03,2.36.11,3.11.13,9.12.13s6.76-.03,9.12-.13c2.35-.11,3.96-.48,5.37-1.03,1.45-.57,2.69-1.32,3.92-2.55,1.23-1.23,1.99-2.46,2.55-3.92.55-1.41.92-3.01,1.03-5.37.11-2.36.13-3.11.13-9.12s-.03-6.76-.13-9.12c-.11-2.35-.48-3.96-1.03-5.37-.57-1.45-1.32-2.69-2.55-3.92-1.23-1.23-2.46-1.99-3.92-2.55-1.41-.55-3.01-.92-5.37-1.03-2.36-.11-3.11-.13-9.12-.13h0Z"/>
      <path class="cls-1" d="M22.12,10.76c-6.27,0-11.36,5.09-11.36,11.36s5.09,11.36,11.36,11.36,11.36-5.09,11.36-11.36-5.09-11.36-11.36-11.36ZM22.12,29.49c-4.07,0-7.37-3.3-7.37-7.37s3.3-7.37,7.37-7.37,7.37,3.3,7.37,7.37-3.3,7.37-7.37,7.37Z"/>
      <circle class="cls-1" cx="33.92" cy="10.31" r="2.65"/>
    </g>
  </g>
</svg>