<?xml version="1.0" encoding="UTF-8"?>
<svg id="Camada_2" data-name="Camada 2" xmlns="http://www.w3.org/2000/svg" viewBox="0 0 44.24 44.24">
  <defs>
    <style>
      .cls-1 {
        fill: #fff;
      }
    </style>
  </defs>
  <g id="Layer_1" data-name="Layer 1">
    <path class="cls-1" d="M44.1,13c-.11-2.35-.48-3.96-1.03-5.37-.57-1.46-1.32-2.69-2.55-3.92-1.23-1.23-2.46-1.99-3.92-2.55-1.41-.55-3.01-.92-5.37-1.03-2.36-.11-3.11-.13-9.12-.13s-6.76.03-9.12.13c-2.35.11-3.96.48-5.37,1.03-1.45.57-2.69,1.32-3.92,2.55-1.23,1.23-1.99,2.46-2.55,3.92-.55,1.41-.92,3.01-1.03,5.37-.11,2.36-.13,3.11-.13,9.12s.03,6.76.13,9.12c.11,2.35.48,3.96,1.03,5.37.57,1.46,1.32,2.69,2.55,3.92,1.23,1.23,2.46,1.99,3.92,2.55,1.41.55,3.01.92,5.37,1.03,2.36.11,3.11.13,9.12.13s6.76-.03,9.12-.13c2.35-.11,3.96-.48,5.37-1.03,1.45-.57,2.69-1.32,3.92-2.55,1.23-1.23,1.99-2.46,2.55-3.92.55-1.41.92-3.01,1.03-5.37.11-2.36.13-3.11.13-9.12s-.03-6.76-.13-9.12ZM40.12,31.06c-.1,2.16-.46,3.33-.76,4.11-.4,1.03-.88,1.77-1.65,2.54-.77.77-1.51,1.25-2.54,1.66-.78.3-1.95.66-4.11.76-1.26.06-2.05.09-3.43.11v-13.69s4.26,0,4.26,0c.19,0,.37-.22.39-.4l.41-4.81c.02-.2-.18-.46-.39-.46h-4.68s.02-3.58.02-3.58c0-.76.75-1.28,1.45-1.28h3.23c.16,0,.45-.16.45-.38v-4.89c0-.22-.25-.41-.46-.41h-5.57c-3.15.01-5.81,2.56-5.82,5.71l-.02,4.84h-2.91c-.23,0-.42.24-.41.47v4.81c0,.21.2.39.4.4h2.93v13.7h6.09c-1.12,0-2.61.01-4.88.01-5.91,0-6.61-.02-8.94-.13-2.16-.1-3.33-.46-4.11-.76-1.03-.4-1.77-.88-2.54-1.66-.77-.77-1.25-1.51-1.65-2.54-.3-.78-.66-1.95-.76-4.11-.11-2.33-.13-3.03-.13-8.94s.02-6.61.13-8.94c.1-2.16.46-3.33.76-4.11.4-1.03.88-1.77,1.65-2.54.77-.77,1.51-1.25,2.54-1.65.78-.3,1.95-.66,4.11-.76,2.33-.11,3.03-.13,8.94-.13s6.61.02,8.94.13c2.16.1,3.33.46,4.11.76,1.03.4,1.77.88,2.54,1.65.77.77,1.25,1.51,1.65,2.54.3.78.66,1.95.76,4.11.11,2.33.13,3.03.13,8.94s-.02,6.6-.13,8.94Z"/>
  </g>
</svg>