<?xml version="1.0" encoding="UTF-8"?>
<svg id="Camada_2" data-name="Camada 2" xmlns="http://www.w3.org/2000/svg" viewBox="0 0 484.51 244.8">
  <defs>
    <style>
      .cls-1 {
        fill: #fff;
      }
    </style>
  </defs>
  <g id="Layer_1" data-name="Layer 1">
    <g>
      <g>
        <path class="cls-1" d="M125.45,96.22c.93-.93.71-2.14-.5-2.68l-2.97-1.33c-1.2-.54-3.05-.33-4.1.46l-9.96,7.51c-1.05.79-1.91.37-1.92-.95l-.05-37.29c0-1.32-1.08-2.4-2.4-2.4h-8.57c-1.32,0-2.42,1.08-2.46,2.4l-2.78,106.97c-.03,1.32-.87,1.68-1.85.8l-27.86-24.99c-.98-.88-2.78-1.17-3.99-.65l-3.86,1.66c-1.21.52-1.47,1.74-.57,2.7l37.31,40.1c.9.97,1.62,2.83,1.6,4.15l-.58,49.06c-.02,1.32,1.05,2.4,2.37,2.4h13.81c1.32,0,2.38-1.08,2.36-2.4l-2.12-123.94c-.02-1.32.72-3.16,1.65-4.09l17.43-17.49Z"/>
        <path class="cls-1" d="M154.07,146.47c0-9.24-7.46-16.76-16.62-16.76s-16.62,7.52-16.62,16.76,7.46,16.76,16.62,16.76,16.62-7.52,16.62-16.76Z"/>
        <path class="cls-1" d="M52.73,181.61c-9.16,0-16.62,7.52-16.62,16.76s7.46,16.76,16.62,16.76,16.62-7.52,16.62-16.76-7.46-16.76-16.62-16.76Z"/>
        <path class="cls-1" d="M45.44,109.02c0,9.24,7.46,16.76,16.62,16.76s16.62-7.52,16.62-16.76-7.46-16.76-16.62-16.76-16.62,7.52-16.62,16.76Z"/>
        <path class="cls-1" d="M182.36,92.63c-1.26-1.09-3.15-1.09-4.41,0-9.3,8.06-14.95,18.65-14.95,30.24s5.64,22.18,14.95,30.24c1.26,1.09,3.15,1.09,4.41,0,9.3-8.06,14.95-18.65,14.95-30.24s-5.64-22.18-14.95-30.24Z"/>
        <path class="cls-1" d="M19.36,104.95c-1.26-1.09-3.15-1.09-4.41,0C5.64,113.01,0,123.6,0,135.19s5.64,22.18,14.95,30.24c1.26,1.09,3.15,1.09,4.41,0,9.3-8.06,14.95-18.65,14.95-30.24s-5.64-22.18-14.95-30.24Z"/>
        <path class="cls-1" d="M24.92,82.58c12.28.86,23.75-2.66,31.93-10.87,8.18-8.21,11.66-19.69,10.76-31.97-.12-1.67-1.46-3-3.13-3.12-12.28-.86-23.75,2.66-31.93,10.87-8.18,8.21-11.66,19.69-10.76,31.97.12,1.67,1.46,3,3.13,3.12Z"/>
        <path class="cls-1" d="M121.75,46.77c1.67-.08,3.03-1.39,3.19-3.05,1.13-12.26-2.12-23.8-10.14-32.17C106.77,3.18,95.37-.55,83.08.07c-1.67.08-3.03,1.39-3.19,3.05-1.13,12.26,2.12,23.8,10.14,32.17,8.02,8.37,19.42,12.1,31.72,11.48Z"/>
        <path class="cls-1" d="M169.63,170.68c-12.29-.65-23.7,3.06-31.74,11.41-8.04,8.35-11.32,19.89-10.21,32.15.15,1.66,1.51,2.97,3.18,3.06,12.29.65,23.7-3.06,31.74-11.41,8.04-8.35,11.32-19.89,10.21-32.15-.15-1.66-1.51-2.97-3.18-3.06Z"/>
        <path class="cls-1" d="M141.74,92.02c12.01-2.68,22.01-9.31,27.52-19.51,5.51-10.2,5.57-22.2,1.21-33.71-.59-1.56-2.25-2.46-3.88-2.1-12.01,2.68-22.01,9.31-27.52,19.51-5.51,10.2-5.57,22.2-1.21,33.71.59,1.56,2.25,2.46,3.88,2.1Z"/>
      </g>
      <path class="cls-1" d="M324.43,110.48c0-4.21,2.66-6.72,7.99-7.53l8.18-1.26v-.56c0-2.87-1.75-4.3-5.24-4.3-1.46,0-2.66.3-3.6.91-.93.61-1.45,1.49-1.54,2.64l-.05.61h-4.96l.05-.61c.19-2.68,1.24-4.69,3.16-6.03,1.92-1.34,4.32-2.01,7.22-2.01s5.2.67,7.08,2.01c1.89,1.34,2.83,3.6,2.83,6.78v15.47h-4.96v-3.04c0-.25-.11-.37-.33-.37-.16,0-.28.08-.37.23-.81,1.18-1.91,2.12-3.3,2.8-1.39.69-2.84,1.03-4.37,1.03-2.37,0-4.26-.6-5.68-1.8-1.42-1.2-2.13-2.86-2.13-4.98ZM333.08,112.86c1.99,0,3.69-.64,5.1-1.92,1.4-1.28,2.21-3.07,2.43-5.38l-7.85,1.26c-1.03.16-1.85.52-2.45,1.1-.61.58-.91,1.3-.91,2.17s.34,1.51,1.01,2.01c.67.5,1.57.75,2.69.75Z"/>
      <path class="cls-1" d="M390.74,111.18c-1.09-1.9-1.64-4.04-1.64-6.4s.52-4.55,1.57-6.45c1.04-1.9,2.5-3.38,4.37-4.44,1.87-1.06,4.02-1.59,6.45-1.59,1.43,0,2.76.26,3.97.79,1.22.53,2.24,1.25,3.09,2.15.12.12.25.19.37.19.09,0,.18-.05.26-.16.08-.11.12-.24.12-.4v-11.92h4.96v33.66h-4.96v-1.78c0-.41-.12-.61-.37-.61-.12,0-.25.06-.37.19-.81.84-1.83,1.53-3.06,2.06-1.23.53-2.56.79-4,.79-2.31,0-4.4-.54-6.29-1.61-1.89-1.08-3.37-2.56-4.46-4.46ZM397.9,111.6c1.12.62,2.37.93,3.74.93,2.4,0,4.28-.72,5.63-2.15,1.36-1.43,2.03-3.3,2.03-5.61s-.68-4.18-2.03-5.61c-1.36-1.43-3.23-2.15-5.63-2.15-2.12,0-3.88.69-5.28,2.08-1.4,1.39-2.1,3.28-2.1,5.68,0,1.56.33,2.93.98,4.11.65,1.18,1.54,2.09,2.66,2.71Z"/>
      <path class="cls-1" d="M327.58,88.94v-.17c0-3.38,1.62-5.54,4.46-5.54,3.02,0,3.6,2.34,5.27,2.34.99,0,1.35-.69,1.35-2h3.87v.81c0,3.38-1.67,5.24-4.46,5.24-3.2,0-3.69-2.39-5.32-2.39-.99,0-1.31.3-1.31,1.7h-3.87Z"/>
      <path class="cls-1" d="M232.99,169.98c-2-3.75-3-7.92-3-12.5s1.06-8.69,3.17-12.47c2.11-3.77,5-6.76,8.66-8.96,3.66-2.2,7.72-3.3,12.17-3.3s8.68,1.17,12.43,3.5c3.75,2.34,6.41,5.41,7.99,9.23l-6.27,3.84c-1.12-2.7-2.97-4.94-5.53-6.74-2.56-1.8-5.44-2.7-8.63-2.7s-5.94.75-8.39,2.26c-2.45,1.51-4.36,3.59-5.73,6.27-1.37,2.67-2.06,5.69-2.06,9.06s.69,6.31,2.06,8.96c1.37,2.65,3.28,4.73,5.73,6.23,2.45,1.51,5.25,2.26,8.39,2.26,3.41,0,6.48-1.01,9.2-3.03,2.72-2.02,4.62-4.52,5.7-7.48l6,3.57c-.9,2.61-2.35,4.98-4.35,7.11-2,2.13-4.41,3.83-7.25,5.09-2.83,1.26-5.93,1.89-9.3,1.89-4.72,0-8.9-1.08-12.54-3.23-3.64-2.16-6.46-5.11-8.46-8.86Z"/>
      <path class="cls-1" d="M282.02,173.21c-1.35-2.72-2.02-5.83-2.02-9.33,0-3.24.74-6.22,2.22-8.96,1.48-2.74,3.57-4.92,6.27-6.54s5.8-2.43,9.3-2.43c3.68,0,6.81.84,9.37,2.53,2.56,1.68,4.48,3.97,5.76,6.84,1.28,2.88,1.92,6.07,1.92,9.57,0,.76-.02,1.35-.07,1.75h-27.16c.45,2.7,1.56,4.79,3.34,6.27,1.77,1.48,4.17,2.22,7.18,2.22,2.16,0,4.03-.45,5.63-1.35,1.59-.9,2.86-2.07,3.81-3.5l4.85,4.18c-1.35,2.16-3.26,3.94-5.73,5.36-2.47,1.42-5.32,2.12-8.56,2.12-3.95,0-7.29-.78-10.01-2.33-2.72-1.55-4.75-3.68-6.1-6.4ZM304.5,154.91c-1.64-1.44-3.88-2.16-6.71-2.16s-4.92.71-6.67,2.12c-1.75,1.42-2.88,3.36-3.37,5.83h19.48c-.18-2.43-1.09-4.36-2.73-5.8Z"/>
      <path class="cls-1" d="M327.92,147.03v33.97h-7.14v-33.97h7.14ZM335.47,146.42c1.53,0,2.8.49,3.81,1.48,1.01.99,1.52,2.22,1.52,3.71s-.51,2.66-1.52,3.67c-1.01,1.01-2.28,1.52-3.81,1.52s-2.85-.51-3.84-1.52c-.99-1.01-1.48-2.24-1.48-3.67s.49-2.72,1.48-3.71c.99-.99,2.27-1.48,3.84-1.48Z"/>
      <path class="cls-1" d="M353.93,147.03v33.97h-7.14v-33.97h7.14ZM361.48,146.42c1.53,0,2.8.49,3.81,1.48,1.01.99,1.52,2.22,1.52,3.71s-.51,2.66-1.52,3.67c-1.01,1.01-2.28,1.52-3.81,1.52s-2.85-.51-3.84-1.52c-.99-1.01-1.48-2.24-1.48-3.67s.49-2.72,1.48-3.71c.99-.99,2.27-1.48,3.84-1.48Z"/>
      <path class="cls-1" d="M370.2,172.17c0-6.07,3.84-9.68,11.52-10.85l11.79-1.82v-.81c0-4.13-2.52-6.2-7.55-6.2-2.11,0-3.84.44-5.19,1.31-1.35.88-2.09,2.15-2.22,3.81l-.07.88h-7.14l.07-.88c.27-3.86,1.79-6.76,4.55-8.69,2.76-1.93,6.23-2.9,10.41-2.9s7.49.97,10.21,2.9c2.72,1.93,4.08,5.19,4.08,9.77v22.31h-7.14v-4.38c0-.36-.16-.54-.47-.54-.22,0-.4.11-.54.34-1.17,1.71-2.75,3.06-4.75,4.04-2,.99-4.1,1.48-6.3,1.48-3.41,0-6.14-.86-8.19-2.59-2.04-1.73-3.07-4.12-3.07-7.18ZM382.67,175.6c2.88,0,5.32-.92,7.35-2.76,2.02-1.84,3.19-4.43,3.5-7.75l-11.32,1.82c-1.48.22-2.66.75-3.54,1.58-.88.83-1.31,1.88-1.31,3.13s.48,2.18,1.45,2.9c.97.72,2.26,1.08,3.88,1.08Z"/>
      <path class="cls-1" d="M408.84,173.18c-1.57-2.74-2.36-5.82-2.36-9.23s.75-6.56,2.26-9.3,3.61-4.87,6.3-6.4c2.7-1.53,5.8-2.29,9.3-2.29,2.07,0,3.98.38,5.73,1.15,1.75.76,3.24,1.8,4.45,3.1.18.18.36.27.54.27.13,0,.26-.08.37-.24.11-.16.17-.35.17-.57v-17.19h7.14v48.53h-7.14v-2.56c0-.58-.18-.88-.54-.88-.18,0-.36.09-.54.27-1.17,1.21-2.64,2.2-4.41,2.97-1.77.76-3.7,1.15-5.76,1.15-3.32,0-6.35-.78-9.06-2.33-2.72-1.55-4.86-3.7-6.44-6.44ZM419.15,173.78c1.62.9,3.41,1.35,5.39,1.35,3.46,0,6.17-1.03,8.12-3.1,1.95-2.07,2.93-4.76,2.93-8.09s-.98-6.02-2.93-8.09c-1.95-2.07-4.66-3.1-8.12-3.1-3.06,0-5.59,1-7.62,3-2.02,2-3.03,4.73-3.03,8.19,0,2.25.47,4.22,1.42,5.93.94,1.71,2.22,3.01,3.84,3.91Z"/>
      <path class="cls-1" d="M450.68,172.98c-1.53-2.74-2.29-5.75-2.29-9.03s.75-6.3,2.26-9.06c1.5-2.76,3.64-4.94,6.4-6.54,2.76-1.6,5.92-2.39,9.47-2.39,3.33,0,6.36.81,9.1,2.43,2.74,1.62,4.91,3.8,6.5,6.54,1.59,2.74,2.39,5.75,2.39,9.03s-.75,6.29-2.26,9.03c-1.51,2.74-3.63,4.92-6.37,6.54-2.74,1.62-5.86,2.43-9.37,2.43s-6.69-.81-9.44-2.43c-2.74-1.62-4.87-3.8-6.4-6.54ZM466.52,175.13c3.1,0,5.64-1.06,7.62-3.17,1.98-2.11,2.97-4.79,2.97-8.02s-.99-5.91-2.97-8.02c-1.98-2.11-4.52-3.17-7.62-3.17s-5.77,1.06-7.75,3.17c-1.98,2.11-2.97,4.79-2.97,8.02s.99,5.96,2.97,8.05c1.98,2.09,4.56,3.13,7.75,3.13Z"/>
      <path class="cls-1" d="M256.04,232.6l14.89-35.92h9.37v47.18h-7.14v-34.57l-14.36,34.57h-5.59l-14.29-34.37v34.37h-7.21v-47.18h9.37l14.96,35.92Z"/>
      <path class="cls-1" d="M292.29,195.4c1.53,0,2.8.49,3.81,1.48,1.01.99,1.52,2.22,1.52,3.71s-.51,2.66-1.52,3.67c-1.01,1.01-2.28,1.52-3.81,1.52s-2.85-.51-3.84-1.52c-.99-1.01-1.48-2.24-1.48-3.67s.49-2.72,1.48-3.71c.99-.99,2.27-1.48,3.84-1.48ZM295.87,209.89v33.97h-7.14v-33.97h7.14Z"/>
      <path class="cls-1" d="M311.26,209.89v2.63c0,.49.16.74.47.74.27,0,.47-.11.61-.34,2.16-2.74,5.37-4.11,9.64-4.11,2.83,0,5.27.64,7.31,1.92,2.04,1.28,3.59,3.01,4.65,5.19,1.06,2.18,1.58,4.59,1.58,7.25v20.69h-7.14v-18.6c0-3.32-.76-5.8-2.29-7.41-1.53-1.62-3.68-2.43-6.47-2.43s-4.71.85-6.17,2.56c-1.46,1.71-2.19,4.09-2.19,7.14v18.74h-7.14v-33.97h7.14Z"/>
      <path class="cls-1" d="M342.96,236.07c-1.35-2.72-2.02-5.83-2.02-9.33,0-3.24.74-6.22,2.22-8.96,1.48-2.74,3.57-4.92,6.27-6.54,2.7-1.62,5.8-2.43,9.3-2.43,3.68,0,6.81.84,9.37,2.53,2.56,1.68,4.48,3.97,5.76,6.84,1.28,2.88,1.92,6.07,1.92,9.57,0,.76-.02,1.35-.07,1.75h-27.16c.45,2.7,1.56,4.79,3.34,6.27,1.77,1.48,4.17,2.22,7.18,2.22,2.16,0,4.03-.45,5.63-1.35,1.59-.9,2.86-2.07,3.81-3.5l4.85,4.18c-1.35,2.16-3.26,3.94-5.73,5.36-2.47,1.42-5.32,2.12-8.56,2.12-3.95,0-7.29-.78-10.01-2.33-2.72-1.55-4.75-3.68-6.1-6.4ZM365.44,217.77c-1.64-1.44-3.88-2.16-6.71-2.16s-4.92.71-6.67,2.12c-1.75,1.42-2.88,3.36-3.37,5.83h19.48c-.18-2.43-1.09-4.36-2.73-5.8Z"/>
      <path class="cls-1" d="M385.32,195.4c1.53,0,2.8.49,3.81,1.48,1.01.99,1.52,2.22,1.52,3.71s-.51,2.66-1.52,3.67c-1.01,1.01-2.28,1.52-3.81,1.52s-2.85-.51-3.84-1.52c-.99-1.01-1.48-2.24-1.48-3.67s.49-2.72,1.48-3.71c.99-.99,2.27-1.48,3.84-1.48ZM388.89,209.89v33.97h-7.14v-33.97h7.14Z"/>
      <path class="cls-1" d="M404.1,209.89v33.97h-7.14v-33.97h7.14ZM411.65,209.28c1.53,0,2.8.49,3.81,1.48,1.01.99,1.52,2.22,1.52,3.71s-.51,2.66-1.52,3.67c-1.01,1.01-2.28,1.52-3.81,1.52s-2.85-.51-3.84-1.52c-.99-1.01-1.48-2.24-1.48-3.67s.49-2.72,1.48-3.71c.99-.99,2.27-1.48,3.84-1.48Z"/>
      <path class="cls-1" d="M421.89,235.83c-1.53-2.74-2.29-5.75-2.29-9.03s.75-6.3,2.26-9.06c1.51-2.76,3.64-4.94,6.4-6.54,2.76-1.6,5.92-2.39,9.47-2.39,3.32,0,6.36.81,9.1,2.43s4.91,3.8,6.5,6.54c1.6,2.74,2.39,5.75,2.39,9.03s-.75,6.29-2.26,9.03c-1.51,2.74-3.63,4.92-6.37,6.54-2.74,1.62-5.86,2.43-9.37,2.43s-6.69-.81-9.44-2.43c-2.74-1.62-4.87-3.8-6.4-6.54ZM437.73,237.99c3.1,0,5.64-1.06,7.62-3.17,1.98-2.11,2.97-4.79,2.97-8.02s-.99-5.91-2.97-8.02c-1.98-2.11-4.52-3.17-7.62-3.17s-5.77,1.06-7.75,3.17c-1.98,2.11-2.97,4.79-2.97,8.02s.99,5.96,2.97,8.05c1.98,2.09,4.56,3.13,7.75,3.13Z"/>
      <path class="cls-1" d="M244.3,83.82c2.22,0,4.12.43,5.71,1.29,1.59.86,2.8,2.04,3.63,3.53.83,1.5,1.24,3.17,1.24,5.01,0,2.25-.55,4.19-1.66,5.83-1.11,1.64-2.75,2.77-4.94,3.39l8.14,13.71h-6.18l-7.86-13.2h-5.24v13.2h-5.43v-32.76h12.59ZM248.06,97.3c.92-.9,1.38-2.12,1.38-3.65s-.46-2.8-1.38-3.72c-.92-.92-2.33-1.38-4.24-1.38h-6.69v10.11h6.69c1.9,0,3.31-.45,4.24-1.36Z"/>
      <path class="cls-1" d="M259.19,111.18c-.94-1.89-1.4-4.05-1.4-6.48,0-2.25.52-4.32,1.54-6.22,1.03-1.9,2.48-3.42,4.35-4.54,1.87-1.12,4.02-1.68,6.46-1.68,2.56,0,4.73.59,6.51,1.76,1.78,1.17,3.11,2.75,4,4.75.89,2,1.33,4.21,1.33,6.65,0,.53-.02.94-.05,1.22h-18.86c.31,1.87,1.08,3.32,2.32,4.35,1.23,1.03,2.89,1.54,4.98,1.54,1.5,0,2.8-.31,3.91-.94,1.11-.62,1.99-1.44,2.64-2.43l3.37,2.9c-.94,1.5-2.26,2.74-3.98,3.72-1.72.98-3.7,1.47-5.94,1.47-2.75,0-5.06-.54-6.95-1.61-1.89-1.08-3.3-2.56-4.24-4.45ZM274.8,98.47c-1.14-1-2.69-1.5-4.66-1.5s-3.42.49-4.63,1.47c-1.22.98-2,2.33-2.34,4.05h13.53c-.12-1.68-.76-3.03-1.9-4.02Z"/>
      <path class="cls-1" d="M288.35,123.35c-1.12-1.14-1.89-2.38-2.29-3.72l4.21-2.29c.53,1.44,1.46,2.62,2.78,3.56,1.33.94,3.02,1.4,5.08,1.4,2.22,0,4.02-.73,5.43-2.2,1.4-1.47,2.11-3.45,2.11-5.94v-.42c0-.28-.12-.42-.37-.42-.12,0-.23.05-.33.14-.78.94-1.79,1.69-3.02,2.27-1.23.58-2.6.87-4.1.87-2.28,0-4.36-.52-6.25-1.57-1.89-1.05-3.37-2.5-4.45-4.35-1.08-1.86-1.61-3.94-1.61-6.25s.51-4.44,1.54-6.29c1.03-1.86,2.48-3.3,4.35-4.33,1.87-1.03,4.01-1.54,6.41-1.54,1.47,0,2.8.27,4,.8,1.2.53,2.22,1.25,3.07,2.15.12.12.25.19.37.19.25,0,.37-.16.37-.47v-1.92h4.91v21.2c0,3.99-1.08,7.13-3.23,9.41-2.15,2.28-5.23,3.42-9.22,3.42-2.03,0-3.88-.33-5.57-.98-1.68-.66-3.09-1.55-4.21-2.69ZM297.99,111.86c2.37,0,4.24-.69,5.62-2.06,1.37-1.37,2.06-3.17,2.06-5.38s-.69-4.01-2.06-5.38c-1.37-1.37-3.24-2.06-5.62-2.06-2.09,0-3.83.66-5.22,1.99-1.39,1.33-2.08,3.14-2.08,5.45s.69,4.05,2.08,5.41c1.39,1.36,3.13,2.04,5.22,2.04Z"/>
      <path class="cls-1" d="M317.86,82.94c1.06,0,1.94.34,2.64,1.03.7.69,1.05,1.54,1.05,2.57s-.35,1.85-1.05,2.55c-.7.7-1.58,1.05-2.64,1.05s-1.98-.35-2.67-1.05c-.69-.7-1.03-1.55-1.03-2.55s.34-1.89,1.03-2.57c.69-.69,1.58-1.03,2.67-1.03ZM320.34,93v23.59h-4.96v-23.59h4.96Z"/>
      <path class="cls-1" d="M420.18,111.07c-1.07-1.9-1.61-3.99-1.62-6.26-.01-2.28.5-4.38,1.54-6.3,1.04-1.92,2.51-3.44,4.42-4.56,1.91-1.12,4.1-1.68,6.57-1.69,2.31-.01,4.42.54,6.33,1.65,1.91,1.11,3.42,2.62,4.54,4.52,1.12,1.9,1.68,3.99,1.69,6.26.01,2.28-.5,4.37-1.54,6.28-1.04,1.91-2.5,3.43-4.4,4.56-1.9,1.13-4.06,1.71-6.5,1.72-2.46.01-4.65-.54-6.56-1.65-1.91-1.11-3.4-2.62-4.47-4.52ZM431.19,112.51c2.15-.01,3.91-.75,5.28-2.23,1.37-1.47,2.04-3.33,2.03-5.58s-.71-4.1-2.09-5.56c-1.38-1.46-3.15-2.18-5.3-2.17-2.22.01-4.01.75-5.37,2.23-1.37,1.47-2.04,3.33-2.03,5.58.01,2.28.71,4.14,2.09,5.58,1.38,1.44,3.18,2.16,5.39,2.15Z"/>
      <path class="cls-1" d="M351.36,111.07c-1.07-1.9-1.61-3.99-1.62-6.26-.01-2.28.5-4.38,1.54-6.3,1.04-1.92,2.51-3.44,4.42-4.56,1.91-1.12,4.1-1.68,6.57-1.69,2.31-.01,4.42.54,6.33,1.65,1.91,1.11,3.42,2.62,4.54,4.52,1.12,1.9,1.68,3.99,1.69,6.26.01,2.28-.5,4.37-1.54,6.28-1.04,1.91-2.5,3.43-4.4,4.56-1.9,1.13-4.06,1.71-6.5,1.72-2.46.01-4.65-.54-6.56-1.65-1.91-1.11-3.4-2.62-4.47-4.52ZM362.37,112.51c2.15-.01,3.91-.75,5.28-2.23,1.37-1.47,2.04-3.33,2.03-5.58s-.71-4.1-2.09-5.56c-1.38-1.46-3.15-2.18-5.3-2.17-2.22.01-4.01.75-5.37,2.23-1.37,1.47-2.04,3.33-2.03,5.58.01,2.28.71,4.14,2.09,5.58,1.38,1.44,3.18,2.16,5.39,2.15Z"/>
    </g>
  </g>
</svg>