<?xml version="1.0" encoding="UTF-8"?>
<svg id="Camada_2" data-name="Camada 2" xmlns="http://www.w3.org/2000/svg" viewBox="0 0 413.37 351.06">
  <defs>
    <style>
      .cls-1 {
        fill: #fff;
      }
    </style>
  </defs>
  <g id="Layer_1" data-name="Layer 1">
    <g>
      <g>
        <polygon class="cls-1" points="139.96 123.71 111.02 103.41 1.72 103.41 1.72 100.41 111.96 100.41 141.69 121.26 139.96 123.71"/>
        <g>
          <path class="cls-1" d="M392.17,62.68l-.96,2.72-.93,2.73c12.87,4.45,17.31,6.41,17.31,14.75v63.93c0,4.48-1.74,8.68-4.9,11.84l-11.86,11.87c-1.97,1.97-3.05,4.59-3.05,7.37v36.28c0,4.47-1.74,8.68-4.91,11.84l-18.34,18.34c-1.97,1.97-3.06,4.59-3.06,7.38v15.83c0,4.47-1.74,8.68-4.9,11.84l-28.14,28.14c-3.16,3.16-7.37,4.91-11.84,4.91h-73.25c-2.79,0-5.41,1.09-7.37,3.05l-24.88,24.88c-3.16,3.16-7.37,4.9-11.84,4.9h-8.79c-4.47,0-8.68-1.74-11.84-4.9l-21.03-21.03c-3.16-3.16-4.9-7.37-4.9-11.84v-33.19c0-2.79-1.09-5.41-3.05-7.37l-27.44-27.44c-1.97-1.97-4.59-3.05-7.37-3.05H22.52c-11.11,0-16.75-5.64-16.75-16.75v-15.73c0-4.47,1.74-8.68,4.91-11.84l24.47-24.47c3.16-3.16,7.37-4.9,11.84-4.9h55.61l3.9,17.26c.07.46.76,4.57,4.22,7.39,5.21,4.25,16.33,13.55,17.52,14.69,4.96,4.42,6.96,4.96,10.36,5.14.57.03,1.2.06,1.97.16l.21.03h.22c15.22-.31,46.89-.36,64.42-.36,4.03,0,7.22-1.19,9.48-3.54,3.71-3.84,3.98-9.73,3.87-14.59-.01-.69-.04-1.37-.06-2.01-.03-.87-.06-1.68-.06-2.41,0-2.56-.03-4.87-.04-6.98q-.16-20.07,11.64-31.81c2.19-2.18,4.75-4.73,7.66-7.74,5.72-5.37,7.29-9.37,7.29-18.6v-8.3c.02-4.27.03-8.65.02-12.63v-1.27c-.04-4.04-.07-8.21-2.94-10.95-1.88-1.8-4.6-2.58-8.18-2.44l-37.76-.21-.49.04s-1.97.28-3.38-.94c-1.29-1.11-1.97-3.31-1.97-6.38,0,0,0-.13,0-.34,0-.22,0-.56,0-.99-.04-5.02-.17-23.53-.28-36.81,1.04-.2,2.08-.3,3.13-.3h17.81c2.79,0,5.4-1.08,7.37-3.05l24.16-24.16c3.16-3.16,7.37-4.9,11.84-4.9h28.97c4.47,0,8.68,1.74,11.84,4.9l26.13,26.13c1.97,1.97,4.59,3.05,7.38,3.05h24.51c4.47,0,8.68,1.74,11.84,4.91l18.31,18.32c2.04,2.04,4.44,4.23,6.79,5.04l.94-2.73.94-2.73c-.65-.22-1.97-1.04-4.6-3.67l-18.31-18.32c-4.25-4.26-9.91-6.6-15.92-6.6h-24.51c-1.25,0-2.42-.48-3.3-1.36l-26.13-26.13c-4.25-4.25-9.91-6.59-15.92-6.59h-28.97c-6.01,0-11.67,2.34-15.92,6.59l-24.16,24.16c-.88.88-2.05,1.36-3.29,1.36h-17.81c-1.06,0-2.12.1-3.18.25v-.36s-3.74,1.2-3.74,1.2c0,0,0,0,0,0l-2.02.65v.14c-2.59,1.12-4.98,2.72-6.99,4.72l-32.58,32.58c-4.25,4.25-6.59,9.91-6.59,15.92v55.85c0,1.24-.48,2.41-1.37,3.29l-9.26,9.26c-.88.88-2.05,1.36-3.29,1.36H46.99c-6.01,0-11.67,2.34-15.92,6.59l-24.47,24.47c-4.25,4.25-6.6,9.91-6.6,15.92v15.73c0,14.31,8.21,22.52,22.52,22.52h92.28c1.24,0,2.41.48,3.29,1.36l27.44,27.45c.88.88,1.36,2.05,1.36,3.29v33.19c0,6.02,2.34,11.67,6.59,15.92l21.02,21.03c4.25,4.25,9.91,6.59,15.92,6.59h8.79c6.01,0,11.67-2.34,15.92-6.59l24.88-24.88c.88-.88,2.05-1.36,3.29-1.36h73.25c6.01,0,11.67-2.34,15.92-6.6l28.14-28.14c4.25-4.25,6.59-9.91,6.59-15.92v-15.83c0-1.25.48-2.41,1.36-3.29l18.34-18.35c4.25-4.25,6.6-9.91,6.6-15.92v-36.28c0-1.24.48-2.41,1.36-3.29l11.86-11.87c4.25-4.25,6.59-9.91,6.59-15.92v-63.93c0-12.87-8.89-15.95-21.2-20.21ZM124.3,162.76c2.79,0,5.41-1.09,7.37-3.05l9.26-9.26c1.97-1.97,3.06-4.59,3.06-7.37v-55.85c0-4.47,1.74-8.68,4.9-11.84l32.58-32.58c.91-.91,1.89-1.69,2.96-2.36.06,8.12.13,17.67.19,24.9.01,1.54.02,2.97.03,4.26,0,.88.01,1.7.02,2.43.01,2.06.02,3.54.03,4.08,0,.14,0,.24,0,.24,0,4.92,1.37,8.56,4.08,10.82,3.03,2.54,6.59,2.35,7.71,2.21l37.69.2c1.4-.05,3.25.04,4.1.85,1.1,1.05,1.12,3.85,1.14,6.81v1.27c.02,1.97.02,4.04.02,6.16,0,2.12,0,4.28-.01,6.41v8.31c-.01,8.46-1.51,10.66-5.58,14.48-.74.77-1.46,1.5-2.15,2.2-2.07,2.11-3.91,3.93-5.53,5.55-9.12,9.08-12.08,12.23-12.99,20.49-.16,1.5-.26,3.17-.31,5.08-.05,1.9-.06,4.04-.06,6.49,0,1.22.01,2.52.02,3.9.01,2.1.03,4.41.04,6.95,0,.78.03,1.66.06,2.59.14,4.12.34,9.77-2.19,12.4-1.15,1.19-2.9,1.78-5.33,1.78-17.47,0-48.98.05-64.32.35-.84-.1-1.55-.14-2.19-.17-2.02-.11-2.86-.15-6.74-3.61-1.42-1.38-13.1-11.11-17.8-14.94-1.75-1.42-2.16-3.76-2.2-3.97l-3.65-16.2h15.79Z"/>
          <g>
            <path class="cls-1" d="M262.69,170.8l-4.78-10.72v13.98h-2.65v-18h3.5l5.4,12.06,5.37-12.06h3.49v18h-2.64v-13.98l-4.78,10.72h-2.91Z"/>
            <path class="cls-1" d="M277.78,159.28c-.47,0-.86-.15-1.18-.46-.32-.31-.48-.69-.48-1.15s.16-.87.48-1.18c.32-.31.71-.46,1.18-.46s.83.16,1.15.46c.31.31.47.7.47,1.18s-.16.84-.47,1.15c-.31.31-.7.46-1.15.46ZM276.44,174.07v-13.14h2.62v13.14h-2.62Z"/>
            <path class="cls-1" d="M291.4,166.54c0-1.13-.27-1.98-.8-2.54-.53-.57-1.23-.85-2.1-.85-.59,0-1.14.11-1.66.34-.52.23-.96.6-1.32,1.13-.36.53-.55,1.17-.55,1.91v7.53h-2.62v-13.14h2.62v1.62c.52-.62,1.15-1.09,1.89-1.4.74-.31,1.5-.47,2.28-.47,1.49,0,2.68.46,3.56,1.37.88.91,1.32,2.2,1.32,3.85v8.17h-2.62v-7.53Z"/>
            <path class="cls-1" d="M303.42,173.87c-.72.3-1.49.45-2.29.45s-1.52-.13-2.17-.4c-.64-.27-1.16-.69-1.57-1.28-.41-.59-.61-1.29-.61-2.12,0-1.05.32-1.89.97-2.53.65-.64,1.66-1.13,3.04-1.47l4.42-1.03v-.54c0-.53-.23-.96-.7-1.29-.47-.33-1.07-.5-1.8-.5s-1.33.15-1.86.45c-.53.3-.88.79-1.04,1.48h-2.85c.23-1.41.86-2.49,1.91-3.25,1.05-.76,2.33-1.14,3.83-1.14s2.78.39,3.72,1.16c.94.77,1.41,1.81,1.41,3.11v9.12h-2.62v-1.54c-.48.6-1.08,1.05-1.8,1.35ZM299.53,170.36c0,.57.21.99.62,1.27.41.28.92.42,1.51.42.93,0,1.75-.29,2.47-.85.72-.57,1.08-1.35,1.08-2.33v-1.16l-3.83.88c-.67.17-1.15.39-1.43.68-.28.28-.43.65-.43,1.09Z"/>
            <path class="cls-1" d="M319.36,173.14c-.96.79-2.19,1.18-3.69,1.18s-2.74-.36-3.73-1.09c-.99-.72-1.55-1.74-1.69-3.04h2.75c.13.61.42,1.07.89,1.38.47.31,1.06.46,1.78.46s1.3-.16,1.74-.48.67-.74.67-1.26c0-.39-.14-.71-.42-.95-.28-.24-.65-.41-1.09-.51-.45-.1-.94-.19-1.49-.26-.54-.07-1.09-.17-1.63-.31-.54-.13-1.04-.32-1.49-.56s-.81-.61-1.09-1.1-.42-1.11-.42-1.84c0-1.22.47-2.21,1.42-2.96.95-.75,2.15-1.13,3.61-1.13s2.57.34,3.5,1.02c.92.68,1.46,1.6,1.6,2.76h-2.75c-.13-.47-.4-.83-.81-1.09-.41-.25-.93-.38-1.54-.38-.69,0-1.25.15-1.68.45s-.63.7-.63,1.2c0,.33.11.61.33.83.22.22.51.37.87.46.36.09.77.18,1.22.27.46.09.92.16,1.4.22.48.06.94.17,1.4.34.46.17.86.38,1.22.63.36.25.65.61.87,1.09.22.47.33,1.04.33,1.69,0,1.2-.48,2.19-1.44,2.98Z"/>
            <path class="cls-1" d="M263.42,200.02c-.94,0-1.84-.14-2.7-.41-.86-.27-1.65-.68-2.38-1.21-.72-.54-1.35-1.17-1.89-1.91-.54-.74-.95-1.6-1.26-2.58-.3-.98-.45-2.02-.45-3.14,0-1.39.23-2.67.69-3.84.46-1.17,1.08-2.14,1.86-2.93.78-.79,1.69-1.4,2.74-1.83,1.04-.43,2.15-.65,3.32-.65,1.82,0,3.43.48,4.83,1.44,1.39.96,2.37,2.27,2.92,3.93h-3.09c-.43-.86-1.05-1.53-1.86-2.02-.8-.48-1.74-.73-2.8-.73-1.67,0-3.04.61-4.12,1.83-1.08,1.22-1.63,2.82-1.63,4.8s.55,3.57,1.65,4.8c1.1,1.23,2.49,1.84,4.16,1.84.75,0,1.44-.12,2.07-.35s1.15-.55,1.56-.95c.41-.4.74-.86.99-1.37.25-.52.39-1.06.43-1.64h-5.4v-2.55h8.48v1.11c0,2.49-.75,4.5-2.25,6.05-1.5,1.55-3.46,2.32-5.9,2.32Z"/>
            <path class="cls-1" d="M279.47,200.02c-.85,0-1.65-.15-2.42-.45s-1.46-.72-2.06-1.28c-.61-.56-1.09-1.27-1.45-2.15-.36-.88-.54-1.85-.54-2.92s.18-2.06.53-2.94c.35-.88.82-1.6,1.42-2.16.59-.56,1.27-.99,2.02-1.29.75-.3,1.55-.45,2.38-.45s1.62.15,2.37.45c.75.3,1.42.72,2.01,1.28.59.56,1.05,1.27,1.4,2.15.35.87.52,1.85.52,2.92v.97h-10c.17,1.13.6,2.01,1.29,2.64.69.63,1.54.94,2.54.94,1.43,0,2.44-.52,3.04-1.57h2.94c-.51,1.28-1.3,2.25-2.36,2.9-1.06.65-2.27.98-3.61.98ZM275.72,191.85h7.15c-.17-1-.57-1.77-1.2-2.32-.63-.55-1.41-.82-2.33-.82s-1.71.27-2.35.82c-.65.54-1.07,1.32-1.27,2.32Z"/>
            <path class="cls-1" d="M288.54,199.77v-13.14h2.62v2.03c.59-.78,1.33-1.35,2.24-1.73.91-.37,1.89-.56,2.96-.56v2.72c-1.61-.15-2.87.1-3.8.75-.93.65-1.39,1.79-1.39,3.41v6.5h-2.62Z"/>
            <path class="cls-1" d="M304.06,199.58c-.72.3-1.49.45-2.29.45s-1.52-.13-2.17-.4c-.64-.27-1.16-.69-1.57-1.28-.41-.59-.61-1.29-.61-2.12,0-1.05.32-1.89.97-2.53.65-.64,1.66-1.13,3.04-1.47l4.42-1.03v-.54c0-.53-.23-.96-.7-1.29-.47-.33-1.07-.5-1.8-.5s-1.33.15-1.86.45c-.53.3-.88.79-1.04,1.48h-2.85c.23-1.41.86-2.49,1.91-3.25,1.05-.76,2.33-1.14,3.83-1.14s2.78.39,3.72,1.16c.94.77,1.41,1.81,1.41,3.11v9.12h-2.62v-1.54c-.48.6-1.08,1.05-1.8,1.35ZM300.18,196.07c0,.57.21.99.62,1.27.41.28.92.42,1.51.42.93,0,1.75-.29,2.47-.85.72-.57,1.08-1.35,1.08-2.33v-1.16l-3.83.88c-.67.17-1.15.39-1.43.68-.28.28-.43.65-.43,1.09Z"/>
            <path class="cls-1" d="M312.98,184.99c-.47,0-.86-.15-1.18-.46-.32-.31-.48-.69-.48-1.15s.16-.87.48-1.18c.32-.31.71-.46,1.18-.46s.83.16,1.15.46c.31.31.47.7.47,1.18s-.16.84-.47,1.15c-.31.31-.7.46-1.15.46ZM311.64,199.77v-13.14h2.62v13.14h-2.62Z"/>
            <path class="cls-1" d="M325.46,198.84c-.96.79-2.19,1.18-3.69,1.18s-2.74-.36-3.73-1.09c-.99-.72-1.55-1.74-1.69-3.04h2.75c.13.61.42,1.07.89,1.38.47.31,1.06.46,1.78.46s1.3-.16,1.74-.48c.44-.32.67-.74.67-1.26,0-.39-.14-.71-.42-.95-.28-.24-.65-.41-1.09-.51-.45-.1-.94-.19-1.49-.26-.54-.07-1.09-.17-1.63-.31-.54-.13-1.04-.32-1.49-.56s-.81-.61-1.09-1.1c-.28-.5-.42-1.11-.42-1.84,0-1.22.47-2.21,1.42-2.96.95-.75,2.15-1.13,3.61-1.13s2.57.34,3.5,1.02c.92.68,1.46,1.6,1.6,2.76h-2.75c-.13-.47-.4-.83-.81-1.09-.41-.25-.93-.38-1.54-.38-.69,0-1.25.15-1.68.45-.42.3-.63.7-.63,1.2,0,.33.11.61.33.83.22.22.51.37.87.46.36.09.77.18,1.22.27s.92.16,1.4.22c.48.06.94.17,1.4.34.46.17.86.38,1.22.63.36.25.65.61.87,1.09.22.47.33,1.04.33,1.69,0,1.2-.48,2.19-1.44,2.98Z"/>
          </g>
          <path class="cls-1" d="M181.86,124.5c-2.2,0-4.28.86-5.83,2.42-1.56,1.56-2.42,3.63-2.42,5.83v11.7c0,2.2.86,4.28,2.42,5.83,1.56,1.56,3.63,2.42,5.83,2.42h3.7c2.2,0,4.28-.86,5.83-2.42,1.56-1.56,2.42-3.63,2.42-5.83v-11.7c0-2.2-.86-4.28-2.42-5.83-1.56-1.56-3.63-2.42-5.83-2.42h-3.7Z"/>
        </g>
      </g>
      <g>
        <path class="cls-1" d="M2.36,25.33V1.38h8.8c2.28,0,4.15.63,5.59,1.9,1.45,1.27,2.17,2.97,2.17,5.11,0,1.7-.47,3.12-1.43,4.24-.95,1.12-2.24,1.89-3.85,2.29l8.35,10.41h-4.63l-7.97-10.12h-3.39v10.12h-3.66ZM6.01,12.02h5.14c1.24,0,2.21-.32,2.9-.96.7-.64,1.05-1.53,1.05-2.66s-.35-2.04-1.05-2.67c-.7-.63-1.67-.95-2.9-.95h-5.14v7.25Z"/>
        <path class="cls-1" d="M30.7,25.66c-1.12,0-2.2-.2-3.22-.59-1.03-.39-1.94-.96-2.75-1.7-.81-.74-1.45-1.69-1.93-2.86-.48-1.17-.72-2.47-.72-3.89s.23-2.74.7-3.92c.47-1.17,1.1-2.13,1.89-2.87.79-.74,1.69-1.31,2.69-1.71,1-.4,2.06-.6,3.17-.6s2.15.2,3.16.59c1,.39,1.89.96,2.67,1.7.78.74,1.4,1.69,1.86,2.86.46,1.16.69,2.46.69,3.88v1.29h-13.31c.22,1.5.79,2.67,1.71,3.51.92.83,2.04,1.25,3.38,1.25,1.9,0,3.25-.7,4.04-2.09h3.91c-.68,1.7-1.73,2.99-3.14,3.86-1.41.87-3.02,1.3-4.81,1.3ZM25.71,14.79h9.52c-.22-1.33-.75-2.35-1.59-3.08-.84-.73-1.87-1.09-3.1-1.09s-2.27.36-3.13,1.09c-.86.72-1.43,1.75-1.7,3.09Z"/>
        <path class="cls-1" d="M50.78,32.51c-2.01,0-3.77-.48-5.26-1.44-1.49-.96-2.51-2.3-3.06-4h4.07c.33.67.87,1.19,1.6,1.58.73.38,1.62.58,2.64.58,1.53,0,2.72-.48,3.59-1.43.87-.95,1.3-2.25,1.3-3.9v-1.2c-1.39,1.74-3.29,2.61-5.68,2.61-1.09,0-2.13-.2-3.11-.59-.98-.39-1.86-.95-2.63-1.68-.78-.73-1.39-1.67-1.84-2.81-.45-1.15-.68-2.42-.68-3.82s.23-2.68.68-3.82c.45-1.14,1.06-2.08,1.83-2.81.77-.73,1.65-1.29,2.63-1.68.99-.39,2.02-.59,3.12-.59,2.39,0,4.29.87,5.68,2.61v-2.27h3.49v16.05c0,2.54-.78,4.61-2.34,6.21-1.56,1.6-3.57,2.4-6.05,2.4ZM50.61,22.04c1.5,0,2.75-.5,3.74-1.51.99-1.01,1.49-2.39,1.49-4.13s-.5-3.09-1.49-4.09c-.99-1-2.24-1.5-3.74-1.5s-2.73.5-3.72,1.5c-.99,1-1.49,2.37-1.49,4.09s.49,3.11,1.49,4.13c.99,1.01,2.23,1.52,3.72,1.52Z"/>
        <path class="cls-1" d="M65.13,5.66c-.62,0-1.15-.21-1.57-.62-.42-.41-.63-.92-.63-1.54s.21-1.16.63-1.57c.42-.41.95-.62,1.57-.62s1.11.21,1.53.62c.42.41.63.94.63,1.57s-.21,1.12-.63,1.54c-.42.41-.93.62-1.53.62ZM63.34,25.33V7.84h3.49v17.48h-3.49Z"/>
        <path class="cls-1" d="M79.34,25.07c-.96.39-1.98.59-3.05.59s-2.03-.18-2.88-.54c-.85-.36-1.55-.92-2.09-1.7-.54-.78-.81-1.72-.81-2.82,0-1.39.43-2.52,1.29-3.37.86-.86,2.21-1.51,4.05-1.95l5.88-1.37v-.72c0-.7-.31-1.28-.94-1.72-.62-.45-1.42-.67-2.39-.67s-1.77.2-2.48.59c-.71.39-1.17,1.05-1.38,1.96h-3.79c.3-1.87,1.15-3.31,2.55-4.33,1.4-1.01,3.1-1.52,5.1-1.52s3.7.52,4.94,1.55c1.25,1.03,1.87,2.41,1.87,4.13v12.14h-3.49v-2.05c-.63.8-1.43,1.4-2.4,1.8ZM80.13,5.87c-.47,0-.91-.1-1.33-.28s-.75-.4-.98-.63c-.24-.23-.5-.44-.77-.62s-.51-.28-.71-.28c-.58,0-.9.48-.97,1.44h-2.59c.04-1.51.37-2.62.96-3.31.59-.69,1.35-1.04,2.28-1.04.46,0,.89.1,1.3.28.41.19.74.4.99.63.24.23.5.44.77.63.27.19.5.28.7.28.6,0,.94-.48,1-1.44h2.56c-.04,1.52-.36,2.62-.95,3.31-.59.69-1.34,1.04-2.25,1.04ZM74.17,20.4c0,.76.27,1.32.83,1.69.55.37,1.22.56,2.01.56,1.24,0,2.33-.38,3.29-1.14.96-.76,1.44-1.79,1.44-3.11v-1.54l-5.09,1.17c-.89.22-1.53.52-1.9.9-.38.38-.57.86-.57,1.45Z"/>
        <path class="cls-1" d="M100,25.07c-1.05.39-2.15.59-3.3.59s-2.25-.2-3.3-.59c-1.05-.39-1.99-.96-2.82-1.7-.83-.74-1.49-1.69-1.98-2.86-.49-1.17-.73-2.47-.73-3.89s.24-2.74.73-3.92c.49-1.17,1.15-2.13,1.98-2.87.83-.74,1.77-1.31,2.82-1.71,1.05-.4,2.15-.6,3.3-.6s2.25.2,3.3.6c1.05.4,1.99.97,2.82,1.71.82.74,1.48,1.7,1.97,2.87.49,1.18.74,2.48.74,3.92s-.25,2.72-.74,3.89c-.49,1.17-1.15,2.12-1.97,2.86-.83.74-1.76,1.31-2.82,1.7ZM92.99,20.85c.97,1.03,2.21,1.54,3.72,1.54s2.74-.51,3.72-1.54c.98-1.03,1.47-2.44,1.47-4.23s-.49-3.22-1.47-4.26c-.98-1.04-2.22-1.55-3.72-1.55s-2.74.52-3.72,1.55c-.97,1.04-1.46,2.46-1.46,4.26s.49,3.2,1.46,4.23Z"/>
        <path class="cls-1" d="M123.9,25.66c-1.09,0-2.13-.2-3.11-.59-.98-.39-1.86-.96-2.63-1.7-.78-.74-1.39-1.69-1.84-2.85-.45-1.16-.68-2.46-.68-3.9s.23-2.74.68-3.92c.45-1.17,1.06-2.13,1.84-2.87.77-.74,1.65-1.31,2.63-1.71.98-.4,2.01-.6,3.11-.6,2.39,0,4.29.88,5.68,2.64V.7h3.49v24.63h-3.49v-2.29c-1.38,1.75-3.27,2.62-5.68,2.62ZM124.52,22.39c1.5,0,2.75-.51,3.74-1.54.99-1.03,1.49-2.44,1.49-4.23s-.5-3.22-1.49-4.26c-.99-1.04-2.24-1.55-3.74-1.55s-2.73.52-3.72,1.55c-.99,1.04-1.49,2.46-1.49,4.26s.49,3.2,1.49,4.23c.99,1.03,2.23,1.54,3.72,1.54Z"/>
        <path class="cls-1" d="M148.53,25.07c-1.05.39-2.15.59-3.3.59s-2.25-.2-3.3-.59c-1.05-.39-1.99-.96-2.82-1.7s-1.49-1.69-1.98-2.86c-.49-1.17-.73-2.47-.73-3.89s.24-2.74.73-3.92c.49-1.17,1.15-2.13,1.98-2.87s1.77-1.31,2.82-1.71c1.05-.4,2.15-.6,3.3-.6s2.25.2,3.3.6c1.05.4,1.99.97,2.82,1.71.82.74,1.48,1.7,1.97,2.87.49,1.18.74,2.48.74,3.92s-.25,2.72-.74,3.89c-.49,1.17-1.15,2.12-1.97,2.86-.83.74-1.76,1.31-2.82,1.7ZM141.52,20.85c.97,1.03,2.21,1.54,3.72,1.54s2.74-.51,3.72-1.54c.98-1.03,1.47-2.44,1.47-4.23s-.49-3.22-1.47-4.26c-.98-1.04-2.22-1.55-3.72-1.55s-2.74.52-3.72,1.55c-.97,1.04-1.46,2.46-1.46,4.26s.49,3.2,1.46,4.23Z"/>
        <path class="cls-1" d="M12.96,56.02c-1.54,0-2.99-.29-4.36-.87-1.37-.58-2.57-1.39-3.59-2.44-1.03-1.05-1.84-2.35-2.44-3.9-.6-1.55-.9-3.25-.9-5.1s.3-3.55.9-5.1c.6-1.55,1.41-2.85,2.44-3.9,1.02-1.05,2.22-1.86,3.59-2.44,1.37-.58,2.82-.87,4.36-.87,2.46,0,4.62.69,6.49,2.07,1.87,1.38,3.14,3.26,3.82,5.63h-4.01c-.54-1.3-1.36-2.33-2.46-3.08-1.11-.75-2.39-1.13-3.83-1.13-2.18,0-3.98.81-5.38,2.43-1.4,1.62-2.1,3.75-2.1,6.39s.7,4.77,2.1,6.4c1.4,1.63,3.2,2.44,5.38,2.44,1.51,0,2.84-.4,3.96-1.21,1.13-.81,1.96-1.92,2.5-3.35h3.98c-.65,2.46-1.92,4.42-3.82,5.86-1.9,1.45-4.11,2.17-6.62,2.17Z"/>
        <path class="cls-1" d="M33.83,56.02c-1.12,0-2.2-.2-3.22-.59-1.03-.39-1.94-.96-2.75-1.7s-1.45-1.69-1.93-2.86c-.48-1.17-.72-2.47-.72-3.89s.23-2.74.7-3.92c.47-1.17,1.1-2.13,1.89-2.87.79-.74,1.69-1.31,2.69-1.71,1-.4,2.06-.6,3.17-.6s2.15.2,3.16.59c1,.39,1.89.96,2.67,1.7.78.74,1.4,1.69,1.86,2.86.46,1.16.69,2.46.69,3.88v1.29h-13.31c.22,1.5.79,2.67,1.71,3.51.92.83,2.04,1.25,3.38,1.25,1.9,0,3.25-.7,4.04-2.09h3.91c-.68,1.7-1.73,2.99-3.14,3.86s-3.02,1.3-4.81,1.3ZM28.83,45.15h9.52c-.22-1.33-.75-2.35-1.59-3.08-.84-.73-1.87-1.09-3.1-1.09s-2.27.36-3.13,1.09-1.43,1.75-1.7,3.09Z"/>
        <path class="cls-1" d="M45.39,55.69v-17.48h3.49v17.48h-3.49ZM52.77,42.76c-.7,0-1.28-.23-1.74-.69-.46-.46-.68-1.04-.68-1.75s.23-1.3.68-1.76c.46-.46,1.04-.69,1.74-.69s1.29.23,1.76.69c.47.46.71,1.05.71,1.76s-.23,1.3-.7,1.75c-.47.46-1.06.69-1.77.69Z"/>
        <path class="cls-1" d="M57.97,55.69v-17.48h3.49v17.48h-3.49ZM65.35,42.76c-.7,0-1.28-.23-1.74-.69-.46-.46-.68-1.04-.68-1.75s.23-1.3.68-1.76c.46-.46,1.04-.69,1.74-.69s1.29.23,1.76.69c.47.46.71,1.05.71,1.76s-.23,1.3-.7,1.75c-.47.46-1.06.69-1.77.69Z"/>
        <path class="cls-1" d="M78.17,55.43c-.96.39-1.98.59-3.05.59s-2.03-.18-2.88-.54c-.85-.36-1.55-.92-2.09-1.7-.54-.78-.81-1.72-.81-2.82,0-1.39.43-2.52,1.29-3.37.86-.86,2.21-1.51,4.05-1.95l5.88-1.37v-.72c0-.7-.31-1.28-.94-1.72-.62-.45-1.42-.67-2.39-.67s-1.77.2-2.48.59c-.71.39-1.17,1.05-1.38,1.96h-3.79c.3-1.87,1.15-3.31,2.55-4.33,1.4-1.01,3.1-1.52,5.1-1.52s3.7.52,4.94,1.55,1.87,2.41,1.87,4.13v12.14h-3.49v-2.05c-.63.8-1.43,1.4-2.4,1.8ZM73,50.76c0,.76.27,1.32.83,1.69.55.37,1.22.56,2.01.56,1.24,0,2.33-.38,3.29-1.14.96-.76,1.44-1.79,1.44-3.11v-1.54l-5.09,1.17c-.89.22-1.53.52-1.9.9-.38.38-.57.86-.57,1.45Z"/>
        <path class="cls-1" d="M94.95,56.02c-1.09,0-2.13-.2-3.11-.59-.98-.39-1.86-.96-2.63-1.7-.78-.74-1.39-1.69-1.84-2.85-.45-1.16-.68-2.46-.68-3.9s.23-2.74.68-3.92c.45-1.17,1.06-2.13,1.84-2.87.77-.74,1.65-1.31,2.63-1.71.98-.4,2.01-.6,3.11-.6,2.39,0,4.29.88,5.68,2.64v-9.45h3.49v24.63h-3.49v-2.29c-1.38,1.75-3.27,2.62-5.68,2.62ZM95.57,52.75c1.5,0,2.75-.51,3.74-1.54.99-1.03,1.49-2.44,1.49-4.23s-.5-3.22-1.49-4.26c-.99-1.04-2.24-1.55-3.74-1.55s-2.73.52-3.72,1.55c-.99,1.04-1.49,2.46-1.49,4.26s.49,3.2,1.49,4.23c.99,1.03,2.23,1.54,3.72,1.54Z"/>
        <path class="cls-1" d="M119.58,55.43c-1.05.39-2.15.59-3.3.59s-2.25-.2-3.3-.59c-1.05-.39-1.99-.96-2.82-1.7-.83-.74-1.49-1.69-1.98-2.86-.49-1.17-.73-2.47-.73-3.89s.24-2.74.73-3.92c.49-1.17,1.15-2.13,1.98-2.87.83-.74,1.77-1.31,2.82-1.71,1.05-.4,2.15-.6,3.3-.6s2.25.2,3.3.6c1.05.4,1.99.97,2.82,1.71.82.74,1.48,1.7,1.97,2.87.49,1.18.74,2.48.74,3.92s-.25,2.72-.74,3.89c-.49,1.17-1.15,2.12-1.97,2.86-.83.74-1.76,1.31-2.82,1.7ZM112.57,51.2c.97,1.03,2.21,1.54,3.72,1.54s2.74-.51,3.72-1.54c.98-1.03,1.47-2.44,1.47-4.23s-.49-3.22-1.47-4.26c-.98-1.04-2.22-1.55-3.72-1.55s-2.74.52-3.72,1.55c-.97,1.04-1.46,2.46-1.46,4.26s.49,3.2,1.46,4.23Z"/>
        <path class="cls-1" d="M12.24,81.7l-6.36-14.26v18.61h-3.52v-23.95h4.66l7.18,16.05,7.15-16.05h4.64v23.95h-3.51v-18.61l-6.36,14.26h-3.87Z"/>
        <path class="cls-1" d="M31.8,66.37c-.62,0-1.15-.21-1.57-.62-.42-.41-.63-.92-.63-1.54s.21-1.16.63-1.57c.42-.41.95-.62,1.57-.62s1.11.21,1.53.62c.42.41.63.94.63,1.57s-.21,1.12-.63,1.54c-.42.41-.93.62-1.53.62ZM30.01,86.04v-17.48h3.49v17.48h-3.49Z"/>
        <path class="cls-1" d="M49.41,76.02c0-1.5-.35-2.63-1.06-3.38-.71-.75-1.64-1.13-2.8-1.13-.78,0-1.51.15-2.21.45-.69.3-1.28.81-1.76,1.51-.48.71-.73,1.56-.73,2.55v10.02h-3.49v-17.48h3.49v2.15c.69-.82,1.53-1.45,2.51-1.86.98-.42,2-.63,3.03-.63,1.98,0,3.56.61,4.73,1.82,1.18,1.21,1.76,2.92,1.76,5.13v10.87h-3.49v-10.02Z"/>
        <path class="cls-1" d="M64.16,86.37c-1.12,0-2.2-.2-3.22-.59-1.03-.39-1.94-.96-2.75-1.7-.81-.74-1.45-1.69-1.93-2.86-.48-1.17-.72-2.47-.72-3.89s.23-2.74.7-3.92c.47-1.17,1.1-2.13,1.89-2.87.79-.74,1.69-1.31,2.69-1.71,1-.4,2.06-.6,3.17-.6s2.15.2,3.16.59c1,.39,1.89.96,2.67,1.7.78.74,1.4,1.69,1.86,2.86.46,1.16.69,2.46.69,3.88v1.29h-13.31c.22,1.5.79,2.67,1.71,3.51.92.83,2.04,1.25,3.38,1.25,1.9,0,3.25-.7,4.04-2.09h3.91c-.68,1.7-1.73,2.99-3.14,3.86-1.41.87-3.02,1.3-4.81,1.3ZM59.17,75.5h9.52c-.22-1.33-.75-2.35-1.59-3.08-.84-.73-1.87-1.09-3.1-1.09s-2.27.36-3.13,1.09c-.86.72-1.43,1.75-1.7,3.09Z"/>
        <path class="cls-1" d="M77.51,66.37c-.62,0-1.15-.21-1.57-.62-.42-.41-.63-.92-.63-1.54s.21-1.16.63-1.57c.42-.41.95-.62,1.57-.62s1.11.21,1.53.62c.42.41.63.94.63,1.57s-.21,1.12-.63,1.54c-.42.41-.93.62-1.53.62ZM75.72,86.04v-17.48h3.49v17.48h-3.49Z"/>
        <path class="cls-1" d="M83.08,86.04v-17.48h3.49v17.48h-3.49ZM90.46,73.11c-.7,0-1.28-.23-1.74-.69-.46-.46-.68-1.04-.68-1.75s.23-1.3.68-1.76c.46-.46,1.04-.69,1.74-.69s1.29.23,1.76.69c.47.46.71,1.05.71,1.76s-.23,1.3-.7,1.75c-.47.46-1.06.69-1.77.69Z"/>
        <path class="cls-1" d="M107.27,85.78c-1.05.39-2.15.59-3.3.59s-2.25-.2-3.3-.59c-1.05-.39-1.99-.96-2.82-1.7-.83-.74-1.49-1.69-1.98-2.86-.49-1.17-.73-2.47-.73-3.89s.24-2.74.73-3.92c.49-1.17,1.15-2.13,1.98-2.87.83-.74,1.77-1.31,2.82-1.71,1.05-.4,2.15-.6,3.3-.6s2.25.2,3.3.6c1.05.4,1.99.97,2.82,1.71.82.74,1.48,1.7,1.97,2.87.49,1.18.74,2.48.74,3.92s-.25,2.72-.74,3.89c-.49,1.17-1.15,2.12-1.97,2.86-.83.74-1.76,1.31-2.82,1.7ZM100.26,81.56c.97,1.03,2.21,1.54,3.72,1.54s2.74-.51,3.72-1.54c.98-1.03,1.47-2.44,1.47-4.23s-.49-3.22-1.47-4.26c-.98-1.04-2.22-1.55-3.72-1.55s-2.74.52-3.72,1.55c-.97,1.04-1.46,2.46-1.46,4.26s.49,3.2,1.46,4.23Z"/>
      </g>
    </g>
  </g>
</svg>