<?xml version="1.0" encoding="UTF-8"?>
<svg id="Camada_2" data-name="Camada 2" xmlns="http://www.w3.org/2000/svg" viewBox="0 0 134.49 35.43">
  <defs>
    <style>
      .cls-1 {
        fill: #fff;
      }
    </style>
  </defs>
  <g id="Layer_1" data-name="Layer 1">
    <g>
      <g>
        <path class="cls-1" d="M0,28.66V3.33h9.31c2.41,0,4.39.67,5.92,2.01,1.53,1.34,2.3,3.14,2.3,5.4,0,1.8-.5,3.3-1.51,4.49-1.01,1.19-2.36,2-4.07,2.42l8.83,11h-4.89l-8.43-10.7h-3.58v10.7H0ZM3.87,14.59h5.44c1.31,0,2.33-.34,3.07-1.02.74-.68,1.11-1.62,1.11-2.82s-.37-2.15-1.11-2.83c-.74-.67-1.77-1.01-3.07-1.01H3.87v7.67Z"/>
        <path class="cls-1" d="M34.24,28.39c-1.11.42-2.28.63-3.49.63s-2.38-.21-3.49-.63c-1.11-.42-2.11-1.02-2.98-1.8-.88-.78-1.58-1.79-2.09-3.03-.52-1.24-.78-2.61-.78-4.12s.26-2.9.78-4.14c.52-1.24,1.22-2.25,2.09-3.04.88-.78,1.87-1.39,2.98-1.81,1.11-.42,2.28-.64,3.49-.64s2.38.21,3.49.64c1.11.42,2.1,1.03,2.98,1.81.87.78,1.57,1.8,2.08,3.04.52,1.24.78,2.62.78,4.14s-.26,2.88-.78,4.12c-.52,1.24-1.21,2.25-2.08,3.03-.87.78-1.86,1.38-2.98,1.8ZM26.82,23.92c1.03,1.09,2.34,1.63,3.93,1.63s2.9-.54,3.94-1.63c1.04-1.09,1.55-2.58,1.55-4.48s-.52-3.41-1.55-4.5-2.35-1.64-3.94-1.64-2.9.55-3.93,1.64-1.54,2.6-1.54,4.5.51,3.39,1.54,4.48Z"/>
        <path class="cls-1" d="M44.16,28.66V2.61h3.69v26.05h-3.69Z"/>
        <path class="cls-1" d="M61.26,28.39c-1.02.42-2.09.63-3.22.63s-2.15-.19-3.05-.57c-.9-.38-1.64-.98-2.21-1.8-.57-.82-.86-1.82-.86-2.98,0-1.47.46-2.66,1.37-3.57.91-.91,2.34-1.6,4.28-2.07l6.22-1.45v-.76c0-.74-.33-1.35-.99-1.82-.66-.47-1.5-.71-2.53-.71s-1.88.21-2.62.63c-.75.42-1.23,1.11-1.46,2.08h-4.01c.32-1.98,1.22-3.5,2.69-4.57,1.48-1.07,3.28-1.61,5.4-1.61s3.91.54,5.23,1.63c1.32,1.09,1.98,2.55,1.98,4.37v12.84h-3.69v-2.17c-.67.85-1.52,1.48-2.54,1.9ZM55.8,23.45c0,.8.29,1.4.87,1.79.58.39,1.29.59,2.13.59,1.31,0,2.47-.4,3.48-1.2,1.01-.8,1.52-1.9,1.52-3.29v-1.62l-5.39,1.24c-.94.24-1.61.55-2.01.95-.4.4-.6.91-.6,1.54Z"/>
        <path class="cls-1" d="M71.89,28.66V10.17h3.69v18.49h-3.69ZM79.7,14.99c-.74,0-1.35-.24-1.84-.72-.48-.48-.72-1.1-.72-1.85s.24-1.37.72-1.86c.48-.49,1.1-.73,1.84-.73s1.36.24,1.86.73c.5.49.75,1.11.75,1.86s-.25,1.37-.74,1.85c-.49.48-1.12.72-1.87.72Z"/>
      </g>
      <polygon class="cls-1" points="94.94 15.65 112.95 33.66 112.95 33.67 114.71 35.43 114.71 35.42 114.72 35.43 116.48 33.67 116.47 33.66 134.49 15.65 132.73 13.89 115.97 30.64 115.97 0 113.48 0 113.48 30.67 96.7 13.89 94.94 15.65"/>
    </g>
  </g>
</svg>