<?xml version="1.0" encoding="UTF-8"?>
<svg id="Camada_2" data-name="Camada 2" xmlns="http://www.w3.org/2000/svg" viewBox="0 0 151.65 35.43">
  <defs>
    <style>
      .cls-1 {
        fill: #fff;
      }
    </style>
  </defs>
  <g id="Layer_1" data-name="Layer 1">
    <g>
      <g>
        <path class="cls-1" d="M9.26,28.66L0,3.33h4.08l7.49,20.88L19.06,3.33h3.97l-9.29,25.33h-4.49Z"/>
        <path class="cls-1" d="M35.23,28.39c-1.11.42-2.28.63-3.49.63s-2.38-.21-3.49-.63c-1.11-.42-2.11-1.02-2.99-1.8-.88-.78-1.58-1.79-2.09-3.03-.52-1.24-.78-2.61-.78-4.12s.26-2.9.78-4.14c.52-1.24,1.21-2.25,2.09-3.04.88-.78,1.87-1.39,2.99-1.81,1.11-.42,2.28-.64,3.49-.64s2.38.21,3.49.64,2.11,1.03,2.98,1.81,1.57,1.8,2.08,3.04c.52,1.24.78,2.62.78,4.14s-.26,2.88-.78,4.12c-.52,1.24-1.21,2.25-2.08,3.03-.87.78-1.86,1.38-2.98,1.8ZM27.81,23.92c1.03,1.09,2.34,1.63,3.93,1.63s2.9-.54,3.94-1.63c1.04-1.09,1.55-2.58,1.55-4.48s-.52-3.41-1.55-4.5c-1.04-1.09-2.35-1.64-3.94-1.64s-2.9.55-3.93,1.64c-1.03,1.1-1.55,2.6-1.55,4.5s.51,3.39,1.55,4.48Z"/>
        <path class="cls-1" d="M45.15,28.66V2.61h3.69v26.05h-3.69Z"/>
        <path class="cls-1" d="M60.85,28.66c-1.59,0-2.89-.48-3.9-1.43-1.01-.95-1.52-2.21-1.52-3.78v-9.94h-3.23v-3.34h3.23v-4.7h3.69v4.7h4.59v3.34h-4.59v9.94c0,1.26.58,1.89,1.73,1.89h2.86v3.32h-2.86Z"/>
        <path class="cls-1" d="M76.4,28.39c-1.02.42-2.09.63-3.22.63s-2.15-.19-3.05-.56c-.9-.38-1.64-.98-2.21-1.8-.57-.82-.86-1.82-.86-2.99,0-1.47.46-2.66,1.37-3.57.91-.91,2.34-1.6,4.28-2.07l6.22-1.45v-.76c0-.74-.33-1.35-.99-1.82-.66-.47-1.5-.71-2.53-.71s-1.88.21-2.62.63c-.75.42-1.23,1.11-1.46,2.08h-4.01c.32-1.98,1.21-3.5,2.69-4.57,1.48-1.07,3.28-1.61,5.4-1.61s3.91.54,5.23,1.63c1.32,1.09,1.98,2.55,1.98,4.37v12.84h-3.69v-2.17c-.67.85-1.52,1.48-2.53,1.9ZM70.94,23.45c0,.8.29,1.4.87,1.79.58.39,1.29.59,2.13.59,1.31,0,2.47-.4,3.48-1.2,1.01-.8,1.52-1.9,1.52-3.29v-1.62l-5.39,1.24c-.94.24-1.61.55-2.01.95-.4.4-.6.91-.6,1.54Z"/>
        <path class="cls-1" d="M87.03,28.66V10.17h3.69v18.49h-3.69ZM94.83,14.99c-.74,0-1.36-.24-1.84-.72-.48-.48-.72-1.1-.72-1.85s.24-1.37.72-1.86c.48-.49,1.1-.73,1.84-.73s1.36.24,1.86.73c.5.49.75,1.11.75,1.86s-.25,1.37-.74,1.85c-.49.48-1.12.72-1.87.72Z"/>
      </g>
      <polygon class="cls-1" points="151.65 19.78 133.63 1.77 133.64 1.76 131.88 0 131.87 0 131.86 0 130.1 1.76 130.11 1.77 112.09 19.78 113.85 21.54 130.61 4.79 130.61 35.43 133.1 35.43 133.1 4.76 149.88 21.54 151.65 19.78"/>
    </g>
  </g>
</svg>